<svg width="39" height="40" viewBox="0 0 39 40" fill="none" xmlns="http://www.w3.org/2000/svg">
<g clip-path="url(#clip0_3160_17680)">
<path d="M19.9876 39.3459C19.1776 39.3459 18.4051 39.1509 17.6701 38.8059L3.65258 31.4784C1.94258 30.5484 0.892578 28.8009 0.892578 26.9409V12.9834C0.892578 11.1234 1.95008 9.37591 3.65258 8.48341L11.4526 4.37341C11.8576 4.17841 12.3451 4.29841 12.5476 4.68091C12.7501 5.07091 12.6301 5.53591 12.2251 5.73091L4.46258 9.84091C3.24008 10.4634 2.51258 11.6634 2.51258 12.9834V26.9409C2.51258 28.2609 3.24758 29.4609 4.46258 30.1209L18.4351 37.4109C19.4101 37.9134 20.5876 37.9134 21.5626 37.4109L24.0826 36.0909C24.4876 35.8959 24.9751 36.0159 25.1776 36.3984C25.3801 36.7809 25.2601 37.2534 24.8551 37.4484L22.3351 38.7684C21.6076 39.1584 20.7901 39.3534 19.9801 39.3534L19.9876 39.3459Z" fill="black"/>
<path d="M10.3576 10.4327C10.2751 10.4327 10.1926 10.4327 10.1176 10.3952C9.6676 10.2752 9.4651 9.81019 9.5926 9.42769L10.8526 5.58769L6.9151 4.38769C6.4651 4.26769 6.2626 3.80269 6.3901 3.42019C6.5101 2.99269 6.9976 2.79769 7.4026 2.91769L12.1126 4.35019C12.5176 4.47019 12.7651 4.93519 12.6376 5.31769L11.1376 9.89269C11.0176 10.2452 10.7326 10.4327 10.3651 10.4327H10.3576Z" fill="black"/>
<path d="M28.0725 35.6625C27.7875 35.6625 27.5025 35.505 27.3375 35.2725C27.135 34.8825 27.255 34.4175 27.66 34.2225L35.46 30.1125C36.6375 29.49 37.41 28.2525 37.41 26.97V12.975C37.41 11.655 36.675 10.455 35.46 9.795L21.4875 2.565C20.5125 2.0625 19.335 2.0625 18.36 2.565L15.84 3.885C15.435 4.08 14.9475 3.96 14.745 3.5775C14.5425 3.195 14.6625 2.7225 15.0675 2.5275L17.5875 1.2075C19.05 0.4725 20.7975 0.4725 22.26 1.2075L36.2325 8.4975C37.9425 9.39 38.9925 11.13 38.9925 13.035V26.9925C38.9925 28.89 37.935 30.6375 36.2325 31.53L28.47 35.6025C28.35 35.64 28.185 35.6775 28.065 35.6775L28.0725 35.6625Z" fill="black"/>
<path d="M32.7826 37.1007C32.7001 37.1007 32.6176 37.1007 32.5426 37.0632L27.8326 35.6307C27.4276 35.5107 27.1801 35.0457 27.3076 34.6632L28.8076 30.0882C28.9276 29.6607 29.4151 29.4657 29.8201 29.5857C30.2701 29.7057 30.4726 30.1707 30.3451 30.5532L29.0851 34.3932L33.0226 35.5932C33.4726 35.7132 33.6751 36.1782 33.5476 36.5607C33.4276 36.9132 33.0976 37.1007 32.7751 37.1007H32.7826Z" fill="black"/>
<path d="M32.7826 37.1007C32.7001 37.1007 32.6176 37.1007 32.5426 37.0632L27.8326 35.6307C27.4276 35.5107 27.1801 35.0457 27.3076 34.6632L28.8076 30.0882C28.9276 29.6607 29.4151 29.4657 29.8201 29.5857C30.2701 29.7057 30.4726 30.1707 30.3451 30.5532L29.0851 34.3932L33.0226 35.5932C33.4726 35.7132 33.6751 36.1782 33.5476 36.5607C33.4276 36.9132 33.0976 37.1007 32.7751 37.1007H32.7826Z" fill="black"/>
<path d="M18.36 32.7598H13.08C12.63 32.7598 12.27 32.4073 12.27 31.9873C12.27 31.5673 12.6375 31.2148 13.08 31.2148H18.36C18.81 31.2148 19.17 31.5673 19.17 31.9873C19.17 32.4073 18.8025 32.7598 18.36 32.7598Z" fill="black"/>
<path d="M24.8627 32.7598H21.6152C21.1652 32.7598 20.8052 32.4073 20.8052 31.9873C20.8052 31.5673 21.1727 31.2148 21.6152 31.2148H24.8627C25.3127 31.2148 25.6727 31.5673 25.6727 31.9873C25.6727 32.4073 25.3052 32.7598 24.8627 32.7598Z" fill="black"/>
<path d="M32.1752 28.1114H19.1777C18.7277 28.1114 18.3677 27.7589 18.3677 27.3389C18.3677 26.9189 18.7352 26.5664 19.1777 26.5664H32.1752C32.6252 26.5664 32.9852 26.9189 32.9852 27.3389C32.9852 27.7589 32.6177 28.1114 32.1752 28.1114Z" fill="black"/>
<path d="M15.9225 28.1114H7.79999C7.34999 28.1114 6.98999 27.7589 6.98999 27.3389C6.98999 26.9189 7.35749 26.5664 7.79999 26.5664H15.9225C16.3725 26.5664 16.7325 26.9189 16.7325 27.3389C16.7325 27.7589 16.365 28.1114 15.9225 28.1114Z" fill="black"/>
<path d="M35.0175 23.4512H4.95746C4.50746 23.4512 4.14746 23.0988 4.14746 22.6788C4.14746 22.2588 4.51496 21.9062 4.95746 21.9062H35.025C35.475 21.9062 35.835 22.2588 35.835 22.6788C35.835 23.0988 35.4675 23.4512 35.025 23.4512H35.0175Z" fill="black"/>
<path d="M19.9875 22.8762C19.5375 22.8762 19.1775 22.5238 19.1775 22.1038V16.3663C19.1775 15.9388 19.545 15.5938 19.9875 15.5938C20.43 15.5938 20.7975 15.9463 20.7975 16.3663V22.1038C20.7975 22.5312 20.43 22.8762 19.9875 22.8762Z" fill="black"/>
<path d="M21.7725 16.8664C21.12 16.8664 20.475 16.6339 19.9875 16.1689C19.2975 15.5464 19.0125 14.6164 19.2525 13.7239C19.7025 12.1339 20.43 10.8964 21.3675 9.96641C23.925 7.56641 27.9525 7.56641 28.11 7.56641C28.56 7.56641 28.92 7.91891 28.92 8.33891C28.92 8.49641 28.92 12.3289 26.3625 14.7364C25.14 15.9364 23.5575 16.4839 22.4625 16.7539C22.2225 16.8289 22.0125 16.8739 21.7725 16.8739V16.8664ZM27.255 9.14891C26.0775 9.26891 23.9625 9.68891 22.545 11.0464C21.81 11.7439 21.2025 12.7939 20.835 14.0689C20.7525 14.4214 20.8725 14.7664 21.12 14.9989C21.36 15.2314 21.7275 15.3064 22.0575 15.2314H22.095C22.9875 15.0364 24.2925 14.5714 25.2225 13.6414C26.6475 12.2839 27.09 10.2664 27.255 9.14141V9.14891Z" fill="black"/>
<path d="M18.7276 19.1929C18.5251 19.1929 18.3601 19.1554 18.1576 19.1179C16.9801 18.7654 16.0051 18.1879 15.3151 17.4154C13.5301 15.4354 13.4851 12.3379 13.4851 12.2179C13.4851 11.7904 13.8526 11.4454 14.2951 11.4454C14.4151 11.4454 17.3851 11.4079 19.2076 13.4629C20.1001 14.4679 20.5501 15.6754 20.7076 16.5229C20.9101 17.3404 20.6251 18.1879 20.0176 18.6904C19.6951 19.0429 19.2076 19.1929 18.7201 19.1929H18.7276ZM15.1951 13.0654C15.3151 13.9579 15.6451 15.3904 16.5376 16.3954C17.0626 16.9804 17.7601 17.3629 18.6526 17.6329C18.6901 17.6329 18.8176 17.6704 18.9751 17.5579C19.0951 17.4379 19.2601 17.1679 19.1776 16.8604C19.0126 16.2004 18.6901 15.2704 18.0001 14.4979C17.1901 13.5679 16.0126 13.2154 15.1951 13.0654Z" fill="black"/>
</g>
<defs>
<clipPath id="clip0_3160_17680">
<rect width="38.1075" height="38.6925" fill="white" transform="translate(0.892578 0.652344)"/>
</clipPath>
</defs>
</svg>
