<svg width="104" height="61" viewBox="0 0 104 61" fill="none" xmlns="http://www.w3.org/2000/svg">
<path d="M79.8376 0.160156C79.8376 0.160156 79.7534 0.160156 79.7173 0.160156C73.6097 0.220677 68.6683 5.35281 68.6683 11.6106C68.6683 17.8684 73.6458 23.0369 79.8015 23.0611C79.8256 23.0611 79.8376 23.0611 79.8616 23.0611C84.6828 23.0611 88.5542 18.9215 88.5542 13.9104C88.5542 8.89931 84.7068 4.79602 79.9097 4.75971C79.8857 4.75971 79.8736 4.75971 79.8496 4.75971C76.363 4.75971 73.6338 7.89467 73.6338 11.5985C73.6338 12.1916 74.0906 12.6879 74.6918 12.7C75.2929 12.7121 75.7738 12.24 75.7859 11.6348C75.7859 11.6227 75.7859 11.6106 75.7859 11.5985C75.7859 8.93563 77.6614 6.91424 79.8496 6.91424C83.4444 6.91424 86.39 10.0008 86.39 13.8983C86.39 17.7958 83.4444 20.8824 79.8496 20.8824C74.8601 20.8824 70.8204 16.7428 70.8204 11.5864C70.8204 6.43008 74.8601 2.29048 79.8496 2.29048C86.2217 2.29048 91.3555 7.47103 91.3555 13.8862C91.3555 20.3014 86.2217 25.4698 79.8616 25.4819H32.1548C31.5657 25.4577 31.0608 25.9298 31.0367 26.5229C31.0127 27.116 31.4816 27.6243 32.0707 27.6486C32.0947 27.6486 32.1188 27.6486 32.1548 27.6486H79.8256C79.8256 27.6486 79.8496 27.6486 79.8616 27.6486C79.8977 27.6486 79.9338 27.6486 79.9698 27.6486C87.4481 27.588 93.5076 21.4392 93.5076 13.8983C93.5076 6.35745 87.4601 0.232781 79.9818 0.160156C79.9458 0.160156 79.9097 0.160156 79.8736 0.160156H79.8376ZM57.6914 3.50089C54.2048 3.50089 51.4876 6.63585 51.4876 10.3397C51.4876 14.0436 54.1807 17.1543 57.6433 17.1785C57.6674 17.1785 57.6794 17.1785 57.7035 17.1785C60.601 17.1785 62.8372 14.564 62.8372 11.5017C62.8372 10.9086 62.3683 10.4123 61.7792 10.4123C61.7792 10.4123 61.7552 10.4123 61.7431 10.4123C61.154 10.4123 60.6731 10.9086 60.6851 11.5017C60.6851 13.5231 59.2905 15.0119 57.6914 15.0119C55.5033 15.0119 53.6277 12.9905 53.6277 10.3276C53.6277 7.66469 55.5033 5.64331 57.6914 5.64331C61.2863 5.64331 64.2439 8.72986 64.2439 12.6274C64.2439 16.5249 61.2983 19.6114 57.7035 19.6114H35.1365C34.5474 19.5993 34.0545 20.0593 34.0304 20.6645C34.0184 21.2576 34.4753 21.7539 35.0764 21.7781C35.1004 21.7781 35.1245 21.7781 35.1365 21.7781H57.7035C57.7035 21.7781 57.7876 21.7781 57.8237 21.7781C62.5847 21.7054 66.396 17.6022 66.396 12.6395C66.396 7.6768 62.5487 3.52509 57.7515 3.48878C57.7275 3.48878 57.7155 3.48878 57.6914 3.48878H57.6794L57.6914 3.50089ZM27.7064 13.3536C27.1413 13.3778 26.6844 13.8499 26.6844 14.4188C26.6844 14.9029 26.1073 16.5491 25.2537 17.9532C24.4001 19.3694 23.2098 20.6766 22.6568 21.0034C22.1398 21.2939 21.9594 21.9596 22.26 22.4801C22.3562 22.6496 22.4884 22.7948 22.6568 22.8795C23.2459 23.2185 24.4241 24.5257 25.2777 25.9419C26.1314 27.346 26.6964 28.98 26.6964 29.4763C26.6964 30.0694 27.1894 30.5535 27.7905 30.5414C28.3676 30.5414 28.8365 30.0573 28.8485 29.4763C28.8485 28.9921 29.4136 27.3581 30.2672 25.954C31.1209 24.5499 32.2871 23.2427 32.8882 22.8916C33.4052 22.6012 33.5856 21.9354 33.285 21.4149C33.1888 21.2455 33.0566 21.1002 32.8882 21.0155C32.1067 20.5677 30.9766 19.2846 30.1711 17.9048C29.3655 16.5249 28.8485 14.9635 28.8485 14.4309C28.8485 13.8378 28.3556 13.3536 27.7545 13.3657C27.7545 13.3657 27.7304 13.3657 27.7184 13.3657L27.7064 13.3536ZM27.7424 17.8321C27.9348 18.2195 28.0911 18.6068 28.3195 18.9941C28.9928 20.1319 29.8224 21.1244 30.7361 21.9475C29.8945 22.7343 29.101 23.7026 28.4277 24.8162C28.1632 25.2398 27.9949 25.6635 27.7665 26.0871C27.5501 25.6635 27.3697 25.2398 27.1052 24.8162C26.4319 23.6905 25.6384 22.7343 24.7968 21.9475C25.6384 21.1608 26.4079 20.2045 27.0932 19.091C27.3457 18.6673 27.526 18.2679 27.7424 17.8442V17.8321ZM20.4806 19.6235H1.23199C0.642869 19.6114 0.149931 20.0714 0.125885 20.6766C0.113862 21.2697 0.570732 21.766 1.17188 21.7902C1.19592 21.7902 1.21997 21.7902 1.23199 21.7902H20.4926C21.0818 21.8023 21.5747 21.3302 21.5867 20.7371C21.5987 20.144 21.1299 19.6477 20.5407 19.6356C20.5287 19.6356 20.5047 19.6356 20.4926 19.6356L20.4806 19.6235ZM96.9101 19.8535C95.804 19.8535 94.8301 20.4466 94.1809 21.2818C93.5316 22.117 93.183 23.2064 93.183 24.3926C93.183 25.5788 93.5437 26.656 94.1809 27.4912C94.8181 28.3264 95.804 28.9195 96.9101 28.9195C97.4992 28.9195 97.9801 28.4232 97.9681 27.8301C97.9681 27.2491 97.4872 26.765 96.9101 26.765C96.5494 26.765 96.2007 26.5834 95.8761 26.1719C95.5515 25.7603 95.323 25.1188 95.323 24.3926C95.323 23.6663 95.5515 23.0248 95.8761 22.6133C96.2007 22.2017 96.5494 22.0202 96.9101 22.0202C99.0982 22.0202 100.974 24.0415 100.974 26.7044C100.974 29.3673 99.0982 31.3887 96.9101 31.3887H62.0678C61.4786 31.3887 61.0097 31.8971 61.0218 32.4902C61.0218 33.0712 61.5027 33.5433 62.0678 33.5433H96.9101C100.397 33.5433 103.126 30.4083 103.126 26.7044C103.126 23.0006 100.421 19.8898 96.9702 19.8656C96.9461 19.8656 96.9341 19.8656 96.9101 19.8656V19.8535ZM23.2579 25.5061H1.23199C0.642869 25.4819 0.137908 25.954 0.125885 26.5471C0.101839 27.1402 0.570732 27.6486 1.15985 27.6607C1.1839 27.6607 1.20794 27.6607 1.23199 27.6607H23.2579C23.847 27.6849 24.34 27.2128 24.364 26.6197C24.3881 26.0266 23.9192 25.5303 23.33 25.5061C23.306 25.5061 23.2819 25.5061 23.2579 25.5061ZM58.4008 29.8636C57.8357 29.8878 57.3788 30.3599 57.3788 30.9288C57.3788 31.3887 56.8138 33.0107 55.9722 34.3905C55.1306 35.7825 53.9643 37.0655 53.4233 37.3802C52.9063 37.6707 52.726 38.3365 53.0145 38.8569C53.1107 39.0264 53.255 39.1717 53.4233 39.2685C54.0004 39.5953 55.1546 40.8783 55.9842 42.2582C56.8138 43.6381 57.3788 45.2479 57.3788 45.72C57.3788 46.3131 57.8718 46.7972 58.4609 46.7972C59.05 46.7972 59.5189 46.3131 59.5309 45.72C59.5309 45.2479 60.084 43.6502 60.9136 42.2703C61.7431 40.8904 62.8973 39.6074 63.4744 39.2685C63.9914 38.978 64.1718 38.3123 63.8832 37.7918C63.787 37.6223 63.6428 37.4771 63.4744 37.3802C62.717 36.9445 61.6109 35.6857 60.8174 34.33C60.0239 32.9744 59.5309 31.4492 59.5309 30.9288C59.5309 30.3357 59.038 29.8515 58.4368 29.8636C58.4368 29.8636 58.4128 29.8636 58.4008 29.8636ZM1.21997 31.3887C0.630846 31.3887 0.149931 31.885 0.161954 32.4902C0.161954 33.0712 0.642869 33.5433 1.21997 33.5554H54.7218C55.3109 33.5554 55.7918 33.0591 55.7798 32.4539C55.7798 31.8729 55.2989 31.4008 54.7218 31.3887H1.21997ZM58.4128 34.3421C58.5931 34.7052 58.7374 35.0805 58.9538 35.4436C59.6031 36.5572 60.4206 37.5255 61.3103 38.3365C60.4807 39.1111 59.7233 40.0553 59.062 41.1446C58.8216 41.5562 58.6412 41.9556 58.4368 42.355C58.2325 41.9556 58.0521 41.5441 57.8117 41.1446C57.1504 40.0432 56.3809 39.1111 55.5514 38.3244C56.3689 37.5497 57.1264 36.6177 57.7876 35.5283C58.0281 35.1289 58.1964 34.7416 58.4008 34.3421H58.4128ZM12.5936 34.4511C12.0285 34.4753 11.5717 34.9473 11.5717 35.5162C11.5717 35.8067 11.1148 37.1503 10.4295 38.2881C9.73217 39.4258 8.75831 40.4789 8.36156 40.6968C7.84457 40.9873 7.66423 41.653 7.95278 42.1735C8.04896 42.3429 8.19324 42.4882 8.36156 42.585C8.78236 42.8271 9.74419 43.8801 10.4415 45.0058C11.1268 46.1315 11.5717 47.4751 11.5717 47.7777C11.5717 48.3708 12.0646 48.8549 12.6657 48.8428C13.2428 48.8428 13.7117 48.3587 13.7238 47.7777C13.7238 47.4751 14.1686 46.1436 14.8539 45.0179C15.5392 43.8923 16.501 42.8392 16.9339 42.5971C17.4509 42.3066 17.6312 41.6409 17.3426 41.1204C17.2465 40.951 17.1022 40.8057 16.9339 40.7089C16.3447 40.3821 15.431 39.3532 14.7818 38.2517C14.1325 37.1503 13.7238 35.8793 13.7238 35.5283C13.7238 34.9352 13.2308 34.4511 12.6417 34.4632C12.6417 34.4632 12.6177 34.4632 12.6056 34.4632L12.5936 34.4511ZM89.9248 35.5041C89.3597 35.5283 88.9028 36.0004 88.9028 36.5693C88.9028 36.8961 88.3979 38.3244 87.6284 39.5227C86.8589 40.7331 85.8009 41.8467 85.32 42.1129C84.9834 42.2945 84.767 42.6455 84.7549 43.0329C84.7549 43.045 84.7549 43.0571 84.7549 43.0692C84.7549 43.0813 84.7549 43.0934 84.7549 43.1055C84.7549 43.4928 84.9834 43.8438 85.32 44.0254C85.8009 44.2917 86.8589 45.4053 87.6284 46.6157C88.3979 47.8261 88.9028 49.2544 88.9028 49.5691C88.9028 50.138 89.3597 50.61 89.9248 50.6342C90.5139 50.6584 91.0189 50.1985 91.0429 49.6054V49.5812V49.4843C91.103 49.0607 91.5719 47.7414 92.2813 46.6157C92.8944 45.6352 93.712 44.7274 94.265 44.2675C94.3853 44.1828 94.4935 44.098 94.6017 44.0375C94.9263 43.8559 95.1427 43.517 95.1547 43.1539C95.1547 43.1297 95.1547 43.1055 95.1547 43.0813C95.1547 43.0571 95.1547 43.0329 95.1547 43.0087C95.1307 42.6334 94.9263 42.3066 94.6017 42.1251C94.5055 42.0645 94.3732 41.9798 94.253 41.8951C93.7 41.4351 92.8944 40.5273 92.2692 39.5469C91.5479 38.4091 91.079 37.1019 91.0309 36.6782V36.5814C91.0309 35.9883 90.5379 35.5041 89.9368 35.5162C89.9368 35.5162 89.9128 35.5162 89.9007 35.5162L89.9248 35.5041ZM1.21997 37.2592C0.630846 37.2592 0.137908 37.7313 0.137908 38.3244C0.137908 38.9175 0.6068 39.4137 1.19592 39.4137H1.21997H7.9648C8.55392 39.4137 9.04686 38.9417 9.04686 38.3486C9.04686 37.7555 8.57797 37.2592 7.98885 37.2592H7.9648H1.21997ZM17.2705 37.2592C16.6814 37.2592 16.1885 37.7313 16.1885 38.3244C16.1885 38.9175 16.6573 39.4137 17.2465 39.4137H17.2705H51.1991C51.7882 39.4137 52.2811 38.9417 52.2811 38.3486C52.2811 37.7555 51.8122 37.2592 51.2231 37.2592H51.1991H17.2705ZM65.8189 37.2592C65.2298 37.2592 64.7368 37.7313 64.7368 38.3244C64.7368 38.9175 65.2057 39.4137 65.7949 39.4137H65.8189H71.5177C76.5072 39.4137 80.5469 43.5533 80.5469 48.7097C80.5469 53.866 76.5072 58.0056 71.5177 58.0056C67.9229 58.0056 64.9773 54.9191 64.9773 51.0216C64.9773 47.124 67.9229 44.0375 71.5177 44.0375C73.7059 44.0375 75.5815 46.0589 75.5815 48.7218C75.5815 51.3847 73.7179 53.394 71.5298 53.4061C71.1691 53.4061 70.8204 53.2245 70.4958 52.813C70.1712 52.4014 69.9427 51.7599 69.9427 51.0337C69.9427 50.4406 69.4739 49.9443 68.8847 49.9443C68.8847 49.9443 68.8607 49.9443 68.8487 49.9443C68.2595 49.9443 67.7786 50.4406 67.7906 51.0337C67.7906 52.2199 68.1513 53.3092 68.7886 54.1444C69.4017 54.9433 70.3275 55.5243 71.3855 55.5727C71.4216 55.5727 71.4697 55.5727 71.5057 55.5727C71.5418 55.5727 71.5899 55.5727 71.6259 55.5727C75.0525 55.5001 77.7095 52.4014 77.7095 48.7339C77.7095 45.0663 75.0044 41.9193 71.5538 41.8951C71.5298 41.8951 71.5177 41.8951 71.4937 41.8951C66.6725 41.8951 62.8012 46.0347 62.8012 51.0458C62.8012 56.0569 66.6485 60.1602 71.4456 60.1965C71.4697 60.1965 71.4817 60.1965 71.5057 60.1965C77.6735 60.1965 82.675 55.0401 82.675 48.746C82.675 42.4519 77.6975 37.3197 71.5538 37.2955C71.5298 37.2955 71.5177 37.2955 71.4937 37.2955H65.8069L65.8189 37.2592ZM12.6177 38.7359C12.7259 38.9417 12.81 39.1474 12.9303 39.3532C13.4472 40.2126 14.0724 40.9873 14.7698 41.653C14.1325 42.2945 13.5314 43.0329 13.0144 43.8801C12.8701 44.1222 12.774 44.3643 12.6417 44.5943C12.4974 44.3522 12.4133 44.1222 12.269 43.8801C11.752 43.0329 11.1509 42.2824 10.5137 41.6409C11.1509 41.0115 11.74 40.2731 12.257 39.4258C12.4012 39.1959 12.4854 38.9659 12.6177 38.7359ZM89.9608 39.7769C90.1051 40.0553 90.2253 40.3336 90.3937 40.612C90.9708 41.5441 91.6801 42.3671 92.4496 43.0692C91.6801 43.7712 90.9708 44.5943 90.3937 45.5263C90.2253 45.8047 90.1171 46.0831 89.9608 46.3615C89.7925 46.0589 89.6603 45.7563 89.4559 45.4416C88.8788 44.5338 88.2175 43.747 87.4961 43.0692C88.2055 42.3913 88.8788 41.6046 89.4559 40.6968C89.6483 40.3942 89.7805 40.0795 89.9608 39.7769ZM1.21997 43.1418C0.630846 43.1418 0.137908 43.6139 0.137908 44.207C0.137908 44.8001 0.6068 45.2963 1.19592 45.2963H1.21997H7.544C8.13312 45.2963 8.61404 44.8001 8.60202 44.207C8.60202 43.626 8.1211 43.1539 7.544 43.1418H1.21997ZM17.7995 43.1418C17.2104 43.1418 16.7175 43.6139 16.7175 44.207C16.7175 44.8001 17.1864 45.2963 17.7755 45.2963H17.7995H47.7485C49.9367 45.2963 51.8122 47.3177 51.8122 49.9806C51.8122 52.6435 49.9367 54.6649 47.7485 54.6649C47.3878 54.6649 47.0392 54.4833 46.7145 54.0718C46.3899 53.6603 46.1615 53.0187 46.1615 52.2925C46.1615 51.5662 46.3899 50.9247 46.7145 50.5132C47.0392 50.1017 47.3878 49.9201 47.7485 49.9201C48.3376 49.9201 48.8185 49.4359 48.8185 48.8428C48.8185 48.2497 48.3376 47.7656 47.7485 47.7656C46.6424 47.7656 45.6686 48.3587 45.0193 49.1938C44.3821 50.029 44.0214 51.1184 44.0214 52.3046C44.0214 53.4908 44.3821 54.5681 45.0193 55.4154C45.6445 56.2384 46.6063 56.8315 47.6884 56.8436C47.7124 56.8436 47.7365 56.8436 47.7605 56.8436C51.2472 56.8436 53.9764 53.7087 53.9764 50.0048C53.9764 46.301 51.2712 43.1902 47.8206 43.166C47.7966 43.166 47.7846 43.166 47.7605 43.166H17.8115L17.7995 43.1418Z" fill="#EC8000"/>
</svg>
