<svg width="71" height="71" viewBox="0 0 71 71" fill="none" xmlns="http://www.w3.org/2000/svg">
<path d="M2.65266 37.9944C0.724951 40.2118 0.015732 43.2419 0.544656 47.0025C0.605324 47.434 0.975314 47.7553 1.4111 47.7553C8.04272 47.7553 13.4909 42.5873 13.9404 36.0675H17.0205C17.1017 37.7863 17.4095 39.4439 17.9325 41.0086C17.9505 41.0676 17.9576 41.1283 17.9889 41.1842C17.9926 41.1908 17.9991 41.1941 18.0029 41.2005C18.8267 43.576 20.1222 45.726 21.78 47.5487L19.5979 49.7309C17.313 47.7391 14.4189 46.6513 11.359 46.6513C8.00427 46.6513 4.84953 47.9578 2.47749 50.3308C2.16902 50.6392 2.13484 51.128 2.39717 51.4758C4.68291 54.5084 7.32752 56.1499 10.2584 56.3549C12.0998 56.4814 13.79 56.0208 15.1768 55.3936C14.5487 56.7813 14.0865 58.4681 14.2155 60.3121C14.4206 63.243 16.062 65.8877 19.0946 68.1734C19.2509 68.2914 19.4364 68.3495 19.6209 68.3495C19.8457 68.3495 20.0704 68.2632 20.2396 68.0931C22.6125 65.7211 23.919 62.5663 23.919 59.2115C23.919 56.149 22.8304 53.254 20.8352 50.9682L23.0171 48.7863C24.4343 50.0762 26.047 51.1493 27.814 51.95C27.8952 52.0064 27.9829 52.0509 28.0777 52.0772C30.0611 52.9379 32.2274 53.4418 34.4974 53.5496V56.6301C27.9795 57.083 22.815 62.5295 22.815 69.1595C22.815 69.5953 23.1363 69.9653 23.5678 70.026C27.3275 70.5541 30.3592 69.8457 32.5757 67.918C33.9719 66.7046 34.8375 65.1844 35.375 63.7591C35.9125 65.1844 36.7781 66.7046 38.1743 67.918C39.9174 69.433 42.163 70.1952 44.87 70.1952C45.6066 70.1952 46.3781 70.1388 47.1822 70.026C47.6137 69.9653 47.935 69.5953 47.935 69.1595C47.935 62.5278 42.7671 57.0796 36.2474 56.6301V53.5499C40.6595 53.3415 44.6615 51.5798 47.7284 48.7903L49.9106 50.9725C47.9188 53.2574 46.831 56.1516 46.831 59.2115C46.831 62.5663 48.1375 65.7211 50.5104 68.0931C50.6796 68.2632 50.9043 68.3495 51.1291 68.3495C51.3136 68.3495 51.4991 68.2914 51.6554 68.1734C54.688 65.8877 56.3294 63.243 56.5345 60.3121C56.6635 58.4681 56.2013 56.7813 55.5732 55.3936C56.96 56.0217 58.6468 56.4848 60.4916 56.3549C63.4225 56.1499 66.0671 54.5084 68.3528 51.4758C68.6152 51.128 68.581 50.6392 68.2725 50.3308C65.9005 47.9578 62.7457 46.6513 59.391 46.6513C56.3286 46.6513 53.4336 47.7399 51.1479 49.7352L48.9659 47.5532C51.7567 44.4868 53.5196 40.4849 53.7292 36.0727H56.8097C57.2625 42.5907 62.709 47.7553 69.3389 47.7553C69.7747 47.7553 70.1447 47.434 70.2053 47.0025C70.7343 43.2419 70.025 40.2118 68.0973 37.9944C66.884 36.5982 65.3639 35.7326 63.9386 35.1951C65.3639 34.6576 66.884 33.792 68.0973 32.3958C70.025 30.1784 70.7343 27.1483 70.2053 23.3877C70.1447 22.9562 69.7747 22.6349 69.3389 22.6349C62.7073 22.6349 57.2591 27.8029 56.8097 34.3227H53.7295C53.6224 32.0554 53.1208 29.8913 52.2626 27.9098C52.2476 27.8645 52.224 27.8259 52.2021 27.7842C51.3953 25.9597 50.2951 24.2984 48.97 22.8415L51.1521 20.6593C53.437 22.6511 56.3311 23.7389 59.391 23.7389C62.7457 23.7389 65.9005 22.4324 68.2725 20.0594C68.581 19.751 68.6152 19.2622 68.3528 18.9144C66.0671 15.8818 63.4225 14.2403 60.4916 14.0353C58.6434 13.9054 56.96 14.3685 55.5732 14.9966C56.2013 13.6089 56.6635 11.9221 56.5345 10.0781C56.3294 7.14718 54.688 4.50252 51.6554 2.21674C51.3085 1.95612 50.8189 1.98774 50.5104 2.29707C48.1375 4.66914 46.831 7.82394 46.831 11.1787C46.831 14.2412 47.9196 17.1362 49.9148 19.422L47.7329 21.6039C44.6666 18.8132 40.6647 17.0502 36.2526 16.8406V13.7601C42.7705 13.3072 47.935 7.86068 47.935 1.23066C47.935 0.794866 47.6137 0.42487 47.1822 0.364201C43.4234 -0.163022 40.3908 0.545354 38.1743 2.47224C36.7781 3.68562 35.9125 5.20577 35.375 6.63106C34.8375 5.20577 33.9719 3.68562 32.5757 2.47224C30.3583 0.545354 27.3266 -0.162167 23.5678 0.364201C23.1363 0.42487 22.815 0.794866 22.815 1.23066C22.815 7.86239 27.9829 13.3106 34.5026 13.7601V16.8403C34.4822 16.8413 34.4619 16.8424 34.4416 16.8434C34.338 16.8329 34.2363 16.8345 34.1391 16.8587C29.8702 17.1445 26.0042 18.8871 23.0216 21.5999L20.8394 19.4177C22.8312 17.1328 23.919 14.2386 23.919 11.1787C23.919 7.82394 22.6125 4.66914 20.2396 2.29707C19.9311 1.98689 19.4406 1.95527 19.0946 2.21674C16.062 4.50252 14.4206 7.14718 14.2155 10.0781C14.0865 11.9221 14.5487 13.6089 15.1768 14.9966C13.79 14.3694 12.1032 13.9088 10.2584 14.0353C7.32752 14.2403 4.68291 15.8818 2.39717 18.9144C2.13484 19.2622 2.16902 19.751 2.47749 20.0594C4.84953 22.4324 8.00427 23.7389 11.359 23.7389C14.4214 23.7389 17.3164 22.6503 19.6021 20.655L21.7841 22.837C20.9507 23.7527 20.2101 24.7497 19.573 25.8192C19.4845 25.9112 19.42 26.0198 19.3788 26.1385C17.994 28.5746 17.1615 31.3548 17.0208 34.3175H13.9404C13.4875 27.7994 8.04102 22.6349 1.4111 22.6349C0.975314 22.6349 0.605324 22.9562 0.544656 23.3877C0.015732 27.1483 0.724951 30.1784 2.65266 32.3958C3.86602 33.792 5.38614 34.6576 6.81142 35.1951C5.38614 35.7326 3.86602 36.5982 2.65266 37.9944ZM10.3806 54.6092C8.17346 54.4545 6.12527 53.2548 4.28215 51.0391C6.24746 49.3327 8.73144 48.4013 11.359 48.4013C13.9515 48.4013 16.4047 49.3079 18.3572 50.9716L17.7129 51.6159C17.7009 51.6279 17.6685 51.6612 17.618 51.7142C17.0404 52.2482 14.0087 54.851 10.3806 54.6092ZM22.169 59.2115C22.169 61.8391 21.2376 64.3231 19.5312 66.2884C17.3198 64.4487 16.1201 62.4039 15.9621 60.2019C15.7031 56.578 18.3367 53.518 18.8605 52.9481C18.9109 52.9002 18.9425 52.8695 18.9544 52.8575C18.9792 52.8327 19.0023 52.8071 19.0237 52.7806L19.5944 52.2089C21.2607 54.1615 22.169 56.6164 22.169 59.2115ZM59.391 48.4013C62.0186 48.4013 64.5025 49.3327 66.4678 51.0391C64.6282 53.2506 62.5834 54.4503 60.3814 54.6084C56.7703 54.8579 53.6976 52.2337 53.1277 51.7099C53.0798 51.6595 53.0491 51.6279 53.0371 51.6159C53.0123 51.5911 52.9867 51.5681 52.9602 51.5467L52.3886 50.9759C54.3411 49.3096 56.796 48.4013 59.391 48.4013ZM51.1513 52.2132L51.7956 52.8575C51.8075 52.8695 51.8408 52.9019 51.8938 52.9523C52.427 53.5308 55.0426 56.5626 54.7888 60.1899C54.6341 62.3971 53.4345 64.4453 51.2188 66.2884C49.5124 64.3231 48.581 61.8391 48.581 59.2115C48.581 56.619 49.4876 54.1657 51.1513 52.2132ZM68.5639 24.4122C68.8271 27.2765 68.2298 29.5708 66.784 31.2388C64.3915 34.0014 60.331 34.2902 59.5918 34.3192C59.4013 34.3141 59.4261 34.3175 59.3799 34.3227H58.5648C58.9894 29.0239 63.2524 24.7908 68.5639 24.4122ZM59.4748 36.0727C59.491 36.0727 59.5329 36.0727 59.5978 36.071C60.3498 36.0992 64.3769 36.3811 66.7763 39.142C68.2272 40.8117 68.8271 43.1086 68.5639 45.978C63.2541 45.5994 58.9928 41.3688 58.5648 36.0727H59.4748ZM60.3694 15.781C62.5765 15.9357 64.6247 17.1354 66.4678 19.3511C64.5025 21.0575 62.0186 21.9889 59.391 21.9889C56.7985 21.9889 54.3453 21.0823 52.3928 19.4186L53.0371 18.7743C53.0491 18.7623 53.0816 18.729 53.132 18.676C53.7096 18.1428 56.7464 15.5426 60.3694 15.781ZM48.581 11.1787C48.581 8.55111 49.5124 6.0671 51.2188 4.10176C53.4302 5.94149 54.6299 7.98629 54.7879 10.1883C55.0469 13.8122 52.4133 16.8722 51.8895 17.4421C51.8391 17.49 51.8075 17.5207 51.7956 17.5327C51.7708 17.5575 51.7477 17.5831 51.7263 17.6096L51.1556 18.1813C49.4893 16.2287 48.581 13.7738 48.581 11.1787ZM11.359 21.9889C8.73144 21.9889 6.24746 21.0575 4.28215 19.3511C6.12185 17.1396 8.16662 15.9399 10.3686 15.7818C13.9703 15.5238 17.0524 18.1565 17.6223 18.6803C17.6702 18.7307 17.7009 18.7623 17.7129 18.7743C17.7377 18.7991 17.7633 18.8221 17.7898 18.8435L18.3614 19.4143C16.4089 21.0806 13.954 21.9889 11.359 21.9889ZM19.5987 18.177L18.9544 17.5327C18.9425 17.5207 18.9092 17.4883 18.8562 17.4379C18.323 16.8594 15.7074 13.8276 15.9612 10.2003C16.1159 7.99313 17.3155 5.9449 19.5312 4.10176C21.2376 6.0671 22.169 8.55111 22.169 11.1787C22.169 13.7712 21.2624 16.2245 19.5987 18.177ZM20.2138 28.3533C23.3979 33.9139 28.0174 34.8783 28.6793 34.9875C28.8784 35.0421 29.4287 35.172 30.178 35.172C31.5862 35.172 33.6951 34.7123 35.4835 32.43C38.3153 28.8154 36.2842 23.1595 36.168 22.8528C35.8382 22.1465 35.1055 20.1767 35.1372 18.5582C35.2172 18.5571 35.2947 18.5461 35.375 18.5461C41.6967 18.5461 47.2052 22.088 50.0237 27.291C46.6045 27.3578 40.5228 28.4511 40.0969 37.527C39.9567 40.5101 39.6064 41.1672 37.2301 44.3681C36.5414 45.2952 36.279 46.33 36.4482 47.4451C36.6963 49.0768 37.8557 50.5333 38.8048 51.485C37.6973 51.7179 36.5509 51.8441 35.375 51.8441C33.6272 51.8441 31.943 51.5701 30.359 51.0685C32.1388 49.8721 34.5274 47.6279 33.3678 44.6697C32.3219 41.9994 30.6796 41.8149 29.3603 41.667C28.5597 41.5773 27.8675 41.4996 27.2164 40.9057C24.6652 38.579 21.5686 38.6516 19.3183 39.5288C18.9441 38.1443 18.7263 36.6962 18.7263 35.1951C18.7263 32.7551 19.2669 30.4433 20.2138 28.3533ZM33.3888 18.6761C33.3947 21.0113 34.5222 23.4627 34.553 23.5236C34.5718 23.5731 36.3337 28.507 34.1061 31.3499C31.9426 34.1125 29.2432 33.3332 29.1339 33.2973C29.0877 33.2827 29.0373 33.2716 28.9895 33.2648C28.7867 33.2356 24.115 32.4784 21.21 26.4904C23.814 22.2685 28.2377 19.2923 33.3888 18.6761ZM52.0237 35.1951C52.0237 42.4828 47.3106 48.6761 40.7778 50.9267C39.9003 50.1912 38.4016 48.665 38.1777 47.1794C38.0803 46.5342 38.2298 45.9566 38.6348 45.4106C41.1342 42.0439 41.6862 41.0014 41.8451 37.609C42.0335 33.5882 43.2467 29.0532 50.8385 29.0619C51.5951 30.9625 52.0237 33.028 52.0237 35.1951ZM19.8636 41.1976C21.1275 40.6837 23.7015 40.0684 26.0372 42.1994C27.1079 43.1761 28.2486 43.3034 29.1655 43.4059C30.3583 43.5401 31.0778 43.6204 31.7392 45.3089C32.6787 47.7075 29.4311 49.6649 28.3184 50.2528C24.4613 48.4376 21.4154 45.1935 19.8636 41.1976ZM31.4282 66.5969C29.7585 68.0478 27.4625 68.646 24.5923 68.3845C24.9708 63.0747 29.2014 58.8133 34.4974 58.3852V59.2953C34.4974 59.3115 34.4974 59.3534 34.4992 59.4183C34.471 60.1703 34.189 64.1975 31.4282 66.5969ZM46.1577 68.3845C43.2883 68.6443 40.9992 68.0504 39.3312 66.6046C36.5687 64.212 36.2799 60.1515 36.2508 59.4123C36.2526 59.3508 36.2526 59.3106 36.2526 59.2953C36.2526 59.2628 36.2508 59.2312 36.2474 59.2004V58.3852C41.5461 58.8099 45.7792 63.073 46.1577 68.3845ZM39.3218 3.79329C40.9906 2.3415 43.2849 1.7425 46.1577 2.00568C45.7792 7.31551 41.5486 11.5769 36.2526 12.005V11.0949C36.2526 11.0787 36.2526 11.0368 36.2508 10.9719C36.279 10.2199 36.561 6.19271 39.3218 3.79329ZM24.5923 2.00568C27.4574 1.7425 29.7508 2.33894 31.4188 3.7856C34.1813 6.17818 34.4701 10.2387 34.4992 10.9779C34.4974 11.0394 34.4974 11.0796 34.4974 11.0949C34.4974 11.1274 34.4992 11.159 34.5026 11.1898V12.005C29.2039 11.5803 24.9708 7.31722 24.5923 2.00568ZM3.97369 31.2482C2.52278 29.5785 1.92293 27.2816 2.18611 24.4122C7.49586 24.7908 11.7572 29.0214 12.1852 34.3175H11.2752C11.259 34.3175 11.2171 34.3175 11.1522 34.3192C10.4002 34.291 6.37307 34.0091 3.97369 31.2482ZM11.1582 36.071C11.3504 36.0769 11.3248 36.0727 11.3701 36.0675H12.1852C11.7606 41.3663 7.49757 45.5994 2.18611 45.978C1.92293 43.1137 2.52022 40.8194 3.966 39.1514C6.35854 36.3888 10.419 36.1 11.1582 36.071Z" fill="#EC8000"/>
</svg>
