<svg width="40" height="40" viewBox="0 0 40 40" fill="none" xmlns="http://www.w3.org/2000/svg">
<g clip-path="url(#clip0_3160_17665)">
<path d="M38.6649 14.9159C38.6649 15.9284 38.5149 16.9409 38.2224 17.9159L39.4974 18.2684C41.4324 11.8634 37.5624 5.17344 30.8499 3.32094C30.6174 3.26094 30.3924 3.20094 30.1599 3.14844L29.8674 4.38594C35.0049 5.52594 38.6424 9.88344 38.6649 14.9159Z" fill="black"/>
<path d="M15.205 18.2717L16.48 17.9192C16.1875 16.9442 16.0375 15.9317 16.0375 14.9192C16.0525 10.1192 19.375 5.89672 24.2125 4.54672L23.845 3.32422C18.445 4.83172 14.7325 9.54922 14.71 14.9192C14.71 16.0517 14.875 17.1842 15.205 18.2717Z" fill="black"/>
<path d="M36.0025 14.9163C36.0025 15.3138 35.9725 15.7038 35.9125 16.0938L37.2325 16.2738C37.9375 11.5938 34.945 7.13125 30.205 5.78125L29.8225 6.99625C33.4825 8.05375 35.9875 11.2638 36.0025 14.9088V14.9163Z" fill="black"/>
<path d="M24.1299 7.25172L23.6349 6.07422C18.8424 7.91172 16.3074 12.9217 17.7849 17.6392L19.0599 17.2792C17.7849 13.1917 19.9824 8.84172 24.1299 7.25172Z" fill="black"/>
<path d="M0.730032 35.2429H11.38V37.7854H9.38503V39.0529H17.3725V37.7854H15.3775V35.2429H22.03C22.315 35.2429 22.57 35.0704 22.66 34.8079L24.985 28.1629L24.715 37.7854H23.365V39.0529H31.3525V37.7854H30.0025L29.6875 26.7679C32.2825 26.3104 34.66 25.0804 36.49 23.2654L35.53 22.3879C33.9475 23.9629 31.9 25.0429 29.6575 25.4854L29.6275 24.2029C31.4125 23.8129 33.0475 22.9579 34.3525 21.7279L33.4225 20.8204C32.3575 21.8179 31.0375 22.5379 29.5975 22.8979L29.4475 17.6629L37.9975 22.3804C38.6725 22.7179 39.505 22.4629 39.85 21.8179C40.09 21.3754 40.045 20.8429 39.745 20.4454C39.43 20.0404 39.115 19.6729 38.785 19.3204C38.77 19.2979 38.755 19.2829 38.74 19.2604C38.0725 18.5629 37.345 17.9179 36.565 17.3404C34.615 15.9079 32.35 14.9179 29.9425 14.4379C29.8075 13.7179 29.3575 13.0804 28.6975 12.7054V2.22039C28.69 1.50789 28.0825 0.937886 27.3325 0.945386C26.785 0.945386 26.29 1.24539 26.065 1.72539C25.825 2.25789 25.615 2.80539 25.435 3.36039C25.135 4.26039 24.9325 5.19039 24.82 6.12789C24.535 8.44539 24.7975 10.7929 25.5925 12.9979C25.03 13.4779 24.7075 14.1604 24.7075 14.8804C24.7075 14.8954 24.7075 14.9104 24.7075 14.9329L17.8225 18.7279H6.05503C5.77003 18.7279 5.51503 18.9004 5.42503 19.1629L0.100032 34.4029C-0.0124682 34.7329 0.175032 35.0929 0.520032 35.2054C0.587532 35.2279 0.662532 35.2354 0.730032 35.2354V35.2429ZM28.645 14.8804C28.6375 15.5704 28.0375 16.1254 27.3175 16.1179C26.59 16.1104 26.0125 15.5404 26.02 14.8504C26.0275 14.1679 26.6125 13.6129 27.3325 13.6129C28.06 13.6129 28.6525 14.1904 28.645 14.8804ZM14.7025 33.9679H12.295L13.18 31.4254H17.1025L16.2175 33.9679H14.7025ZM20.2825 26.3479L21.1675 23.8054H25.09L24.205 26.3479H20.2825ZM23.7625 27.6154L22.8775 30.1579H18.955L19.84 27.6154H23.7625ZM18.88 26.3479H14.9575L15.8425 23.8054H19.765L18.88 26.3479ZM18.4375 27.6154L17.5525 30.1579H13.63L14.515 27.6154H18.4375ZM18.5125 31.4254H22.435L21.55 33.9679H17.6275L18.5125 31.4254ZM26.4175 24.3979C26.725 24.4279 27.04 24.4429 27.3475 24.4429C27.655 24.4429 27.97 24.4279 28.2775 24.3979L28.315 25.6654C27.67 25.7179 27.0175 25.7179 26.3725 25.6654L26.41 24.3979H26.4175ZM26.725 23.1454L27.9775 19.5604C28.09 19.2304 27.9025 18.8704 27.5575 18.7579C27.49 18.7354 27.415 18.7279 27.3475 18.7279H26.575L26.6125 17.3404L26.635 17.3179C27.1075 17.4604 27.61 17.4529 28.0825 17.3029L28.2475 23.1229C27.745 23.1754 27.235 23.1829 26.725 23.1454ZM25.24 18.7204H25.1575C25.1575 18.7204 25.2175 18.6679 25.2475 18.6454V18.7204H25.24ZM26.4175 19.9879L25.5325 22.5304H21.61L22.495 19.9879H26.4175ZM20.2075 22.5304H16.285L17.17 19.9879H21.0925L20.2075 22.5304ZM14.8825 22.5304H10.96L11.845 19.9879H15.7675L14.8825 22.5304ZM14.44 23.7979L13.555 26.3404H9.63253L10.5175 23.7979H14.44ZM8.23003 26.3404H4.30753L5.19253 23.7979H9.11503L8.23003 26.3404ZM7.78753 27.6079L6.90253 30.1504H2.98003L3.86503 27.6079H7.78753ZM9.19003 27.6079H13.1125L12.2275 30.1504H8.30503L9.19003 27.6079ZM11.7775 31.4179L10.8925 33.9604H6.97003L7.85503 31.4179H11.7775ZM14.035 37.7704H12.7075V35.2279H14.035V37.7704ZM26.035 37.7704L26.3425 26.9329C26.6725 26.9554 27.01 26.9779 27.3475 26.9779C27.685 26.9779 28.0225 26.9629 28.3525 26.9329L28.66 37.7704H26.035ZM37.69 20.0629C37.69 20.0629 37.72 20.1004 37.735 20.1229C38.065 20.4679 38.3725 20.8279 38.6575 21.2029L38.62 21.2629L29.5375 16.2529C29.65 16.0804 29.74 15.9004 29.8075 15.7129C31.96 16.1629 33.985 17.0629 35.7325 18.3529C36.4375 18.8704 37.09 19.4404 37.6825 20.0704L37.69 20.0629ZM26.125 6.27039C26.23 5.40789 26.4175 4.55289 26.695 3.72789C26.86 3.21789 27.0475 2.71539 27.2725 2.22039L26.665 1.96539L27.3475 2.21289V12.3304H27.3325C27.145 12.3304 26.95 12.3529 26.77 12.3904C26.0875 10.4179 25.87 8.32539 26.1325 6.26289L26.125 6.27039ZM25.075 16.1854C25.18 16.3654 25.315 16.5229 25.4575 16.6729C24.7225 17.4454 23.8975 18.1279 22.9975 18.7279H20.4625L25.0675 16.1854H25.075ZM6.52753 19.9954H10.45L9.56503 22.5379H5.64253L6.52753 19.9954ZM2.53753 31.4254H6.46003L5.57503 33.9679H1.65253L2.53753 31.4254Z" fill="black"/>
<path d="M13.3751 6.02281C15.9476 6.02281 18.0326 4.02781 18.0326 1.57531C18.0326 1.23031 17.7401 0.945312 17.3726 0.945312C14.8001 0.945312 12.7151 2.94031 12.7151 5.39281C12.7151 5.74531 13.0151 6.03031 13.3826 6.03031L13.3751 6.02281ZM16.6151 2.29531C16.3226 3.47281 15.3626 4.39531 14.1251 4.67281C14.4176 3.49531 15.3776 2.57281 16.6151 2.29531Z" fill="black"/>
<path d="M35.3425 26.9844C34.975 26.9844 34.675 27.2694 34.675 27.6219C34.675 30.0744 36.76 32.0619 39.3325 32.0694C39.7 32.0694 40 31.7844 40 31.4319C40 28.9794 37.915 26.9919 35.3425 26.9844ZM36.0925 28.3344C37.33 28.6119 38.2975 29.5344 38.5825 30.7119C37.345 30.4344 36.3775 29.5119 36.0925 28.3344Z" fill="black"/>
<path d="M8.71756 13.6514C9.08506 13.6514 9.38506 13.3664 9.38506 13.0139C9.38506 10.5614 7.30006 8.57391 4.72756 8.56641C4.36006 8.56641 4.06006 8.85141 4.06006 9.20391C4.06006 11.6564 6.14506 13.6439 8.71756 13.6514ZM7.96756 12.3014C6.73006 12.0239 5.76256 11.1014 5.47756 9.92391C6.71506 10.2014 7.68256 11.1239 7.96756 12.3014Z" fill="black"/>
</g>
<defs>
<clipPath id="clip0_3160_17665">
<rect width="39.9375" height="38.1075" fill="white" transform="translate(0.0625 0.945312)"/>
</clipPath>
</defs>
</svg>
