<svg width="48" height="38" viewBox="0 0 48 38" fill="none" xmlns="http://www.w3.org/2000/svg">
<g clip-path="url(#clip0_3160_17708)">
<path d="M7.44004 12.4732C6.66004 12.3082 5.85004 12.5182 5.27254 13.0357C4.69504 13.5607 4.42504 14.3182 4.55254 15.0682L4.74754 16.1857C4.92754 17.2357 5.87254 18.0382 6.99004 18.0907L12.0075 18.3307C12.045 18.3307 12.09 18.3307 12.1275 18.3307C12.7425 18.3307 13.32 18.1057 13.77 17.7007C14.25 17.2657 14.5125 16.6807 14.5125 16.0507V15.8182C14.5125 14.7457 13.7475 13.8307 12.6525 13.5907L7.44004 12.4582V12.4732ZM12.93 15.8257C12.9675 16.1107 12.8925 16.4107 12.675 16.6057C12.5175 16.7482 12.3075 16.8232 12.0825 16.8157L7.06504 16.5757C6.69004 16.5607 6.37504 16.2907 6.31504 15.9382L6.12004 14.8207C6.07504 14.5657 6.16504 14.3182 6.36004 14.1457C6.80254 13.7482 7.57504 14.0632 8.09254 14.1757C8.73004 14.3107 9.36754 14.4532 10.005 14.5882C10.77 14.7532 11.535 14.9182 12.2925 15.0832C12.6525 15.1582 12.8775 15.4807 12.9225 15.8257H12.93Z" fill="black"/>
<path d="M48 9.28406V4.71656C48 4.29656 47.64 3.95906 47.205 3.95906H42.42C33.7125 3.95906 26.1225 8.57156 22.1775 15.3741H17.7075C17.37 15.3741 17.07 15.5766 16.9575 15.8766L15.36 20.0616C15.27 20.2941 15.3075 20.5566 15.4575 20.7591C15.6075 20.9616 15.8475 21.0816 16.11 21.0816H19.8825C19.5 22.6716 19.2975 24.3291 19.2975 26.0241V29.8266H14.91V25.6416H17.3025C17.745 25.6416 18.0975 25.3041 18.0975 24.8841C18.0975 24.4641 17.7375 24.1266 17.3025 24.1266H6.495C5.115 24.1266 3.9525 23.1816 3.735 21.8766L2.61 15.0291C2.61 15.0291 2.61 15.0141 2.61 15.0066C2.31 13.5291 2.9775 12.0216 4.1925 11.4141C5.4825 10.7691 6.8625 10.4391 8.28 10.4391H23.6925C24.135 10.4391 24.4875 10.1016 24.4875 9.68156C24.4875 9.26156 24.1275 8.92406 23.6925 8.92406H8.2725C8.205 8.92406 8.1375 8.92406 8.0625 8.92406L12.1425 3.32156C12.885 2.30156 14.1075 1.68656 15.4125 1.68656H30.2475C31.41 1.68656 32.5125 2.16656 33.2775 3.01406L34.2375 4.08656C34.5225 4.40906 35.025 4.44656 35.3625 4.16906C35.7 3.89906 35.7375 3.41906 35.4525 3.09656L34.4925 2.02406C33.4275 0.839062 31.8825 0.164062 30.255 0.164062H15.42C13.59 0.164062 11.88 1.01906 10.8375 2.45156L9.7275 3.97406H3.75C3.54 3.97406 3.3375 4.05656 3.1875 4.19906C3.0375 4.34156 2.955 4.53656 2.955 4.73906V6.64406C2.955 7.06406 3.315 7.40156 3.75 7.40156C4.185 7.40156 4.545 7.06406 4.545 6.64406V5.50406H8.6175L5.925 9.18656C5.07 9.38156 4.23 9.67406 3.4425 10.0716C1.5975 10.9866 0.607497 13.1241 1.035 15.2766L2.16 22.1091C2.4975 24.1566 4.32 25.6416 6.495 25.6416H6.9375V29.8266H2.16C1.7175 29.8266 1.365 30.1641 1.365 30.5841C1.365 31.0041 1.725 31.3416 2.16 31.3416H19.77L22.1475 33.6066C25.1025 36.4266 28.98 37.8366 32.8575 37.8366C36.735 37.8366 40.62 36.4266 43.5675 33.6066L46.1625 31.1316C46.3125 30.9891 46.395 30.7941 46.395 30.5916C46.395 30.3891 46.3125 30.1941 46.1625 30.0516L43.5675 27.5766C42.675 26.7216 41.6925 26.0016 40.6575 25.4091C45.3375 21.2466 48.0075 15.4266 48.0075 9.28406H48ZM17.2425 19.5516L18.255 16.8891H21.3675C20.955 17.7516 20.6025 18.6366 20.31 19.5516H17.2425ZM8.5275 25.6341H13.3125V29.8191H8.5275V25.6341ZM44.4675 30.5916L42.435 32.5341C37.1475 37.5741 28.5525 37.5741 23.265 32.5341L22.02 31.3416H33.255C33.6975 31.3416 34.05 31.0041 34.05 30.5841C34.05 30.1641 33.69 29.8266 33.255 29.8266H22.05L23.2725 28.6566C28.56 23.6166 37.155 23.6166 42.4425 28.6566L44.475 30.5916H44.4675ZM28.0125 24.1041L37.605 14.9541C37.9125 14.6541 37.9125 14.1741 37.605 13.8816C37.2975 13.5891 36.7875 13.5816 36.48 13.8816L20.895 28.7466V26.0166C20.895 14.6916 30.555 5.47406 42.4275 5.47406H46.4175V9.27656C46.4175 15.1791 43.7775 20.7516 39.165 24.6516C35.655 23.1216 31.65 22.9416 28.02 24.1041H28.0125Z" fill="black"/>
</g>
<defs>
<clipPath id="clip0_3160_17708">
<rect width="47.0625" height="37.6725" fill="white" transform="translate(0.9375 0.164062)"/>
</clipPath>
</defs>
</svg>
