<svg width="91" height="81" viewBox="0 0 91 81" fill="none" xmlns="http://www.w3.org/2000/svg">
<path d="M75.766 65.5606C76.2178 65.9606 76.2415 66.6547 75.8374 67.09C72.0809 71.1721 67.5993 74.4072 62.5353 76.6658C57.281 79.0069 51.682 80.195 45.8691 80.195C35.2536 80.195 25.066 76.0541 17.5175 68.7369V71.6779C17.5175 72.2779 17.0301 72.772 16.4119 72.772C15.7938 72.772 15.3064 72.2896 15.3064 71.6779V66.0312C15.3064 65.4312 15.7938 64.9372 16.4119 64.9372H22.1179C22.7242 64.9372 23.2234 65.4195 23.2234 66.0312C23.2234 66.6429 22.736 67.1253 22.1179 67.1253H18.9796C26.124 74.0895 35.8004 78.0422 45.8691 78.0422C56.6391 78.0422 66.9693 73.5249 74.2207 65.6312C74.6248 65.1842 75.3262 65.1607 75.766 65.5606ZM75.3143 7.43483C74.7081 7.43483 74.2088 7.91716 74.2088 8.52888V11.4699C66.6602 4.14092 56.4727 0 45.8572 0C40.0442 0 34.4452 1.18816 29.1909 3.52919C24.1269 5.79964 19.6453 9.02297 15.8889 13.1051C15.4847 13.5521 15.5085 14.2344 15.9602 14.6344C16.4119 15.0344 17.1014 15.0108 17.5056 14.5638C24.7569 6.6937 35.0871 2.16457 45.8572 2.16457C55.9259 2.16457 65.6023 6.11727 72.7466 13.0698H69.6083C69.0021 13.0698 68.5028 13.5521 68.5028 14.1638C68.5028 14.7756 68.9902 15.2579 69.6083 15.2579H75.3143C75.9206 15.2579 76.4198 14.7756 76.4198 14.1638V8.51712C76.4198 7.92892 75.9206 7.43483 75.3143 7.43483ZM13.2855 48.6205C13.2855 52.0085 10.492 54.7613 7.08026 54.7613C3.66855 54.7613 0.875 52.0085 0.875 48.6205C0.875 46.6912 1.81411 44.856 3.35948 43.7032V29.1276C3.35948 27.0924 5.02373 25.4337 7.09214 25.4337C9.16056 25.4337 10.8248 27.0807 10.8248 29.1276V43.7149C12.3702 44.8678 13.3093 46.6912 13.3093 48.6205H13.2855ZM5.54677 29.1276V30.8804H8.61374V29.1276C8.61374 28.2924 7.92427 27.6101 7.08026 27.6101C6.23625 27.6101 5.53489 28.2806 5.53489 29.1276H5.54677ZM11.0982 48.6205C11.0982 47.2206 10.3731 45.9383 9.14868 45.2207C8.81583 45.0207 8.61374 44.6678 8.61374 44.2914V43.4561H8.01937C7.41311 43.4561 6.91383 42.9738 6.91383 42.3621C6.91383 41.7504 7.40122 41.268 8.01937 41.268H8.61374V39.6917H8.01937C7.41311 39.6917 6.91383 39.2093 6.91383 38.5976C6.91383 37.9859 7.40122 37.5036 8.01937 37.5036H8.61374V35.9272H8.01937C7.41311 35.9272 6.91383 35.4449 6.91383 34.8331C6.91383 34.2214 7.40122 33.7391 8.01937 33.7391H8.61374V33.0097H5.54677V44.2443C5.54677 44.6325 5.34469 44.9737 5.01184 45.1737C3.78743 45.903 3.06229 47.1853 3.06229 48.5852C3.06229 50.7733 4.8573 52.5614 7.08026 52.5614C9.30321 52.5614 11.0863 50.7851 11.0863 48.5852L11.0982 48.6205ZM90.8512 48.6205C90.8512 52.0085 88.0577 54.7613 84.646 54.7613C81.2343 54.7613 78.4407 51.9968 78.4407 48.6205C78.4407 46.6912 79.3798 44.856 80.9252 43.7032V29.1276C80.9252 27.0924 82.5894 25.4337 84.6579 25.4337C86.7263 25.4337 88.3905 27.0807 88.3905 29.1276V43.7149C89.9359 44.8678 90.875 46.6912 90.875 48.6205H90.8512ZM83.1006 29.1276V41.2798H86.1676V39.7034H85.5732C84.9669 39.7034 84.4677 39.2211 84.4677 38.6094C84.4677 37.9976 84.955 37.5153 85.5732 37.5153H86.1676V35.9389H85.5732C84.9669 35.9389 84.4677 35.4566 84.4677 34.8449C84.4677 34.2332 84.955 33.7509 85.5732 33.7509H86.1676V29.0923C86.1676 28.2571 85.4781 27.5748 84.6341 27.5748C83.7901 27.5748 83.0887 28.2571 83.0887 29.1041L83.1006 29.1276ZM88.652 48.6205C88.652 47.2206 87.9269 45.9383 86.7025 45.2207C86.3697 45.0207 86.1676 44.6678 86.1676 44.2914V43.4561H83.1006V44.2914C83.1006 44.6796 82.8985 45.0207 82.5657 45.2207C81.3413 45.9383 80.6161 47.2206 80.6161 48.6205C80.6161 50.8086 82.4111 52.5967 84.6341 52.5967C86.857 52.5967 88.6402 50.8204 88.6402 48.6205H88.652ZM64.6394 41.9974C64.8652 43.4208 63.8548 44.3267 63.1297 44.9972C62.8919 45.2207 62.6542 45.4207 62.4996 45.6207C62.0479 46.1736 61.4654 47.0206 61.1445 47.7147C60.9899 48.0676 60.871 48.4558 60.7641 48.8205C60.6214 49.2911 60.4788 49.7734 60.2529 50.2204C59.7655 51.1851 58.9928 51.738 58.3152 52.2203C58.0181 52.4438 57.7209 52.632 57.4831 52.8673C56.9482 53.3732 56.5083 53.8908 56.0328 54.4437C55.3671 55.2201 54.6777 56.0318 53.6197 56.9024C51.7652 58.4199 49.6374 59.7375 48.1871 60.5962C48.1277 60.6315 48.1039 60.6551 48.1039 60.6551C48.1039 60.6904 48.0801 60.8551 48.0682 60.9609C48.0445 61.2197 48.0207 61.5256 47.9137 61.8785C47.6878 62.5373 47.2123 63.0784 46.4515 63.5137C45.9166 63.8196 45.3698 63.9843 44.8705 63.9843C44.5258 63.9843 44.2048 63.9137 43.9076 63.7608C43.0636 63.349 42.6 62.4079 42.5168 60.9845C42.3979 58.7375 43.2776 56.3142 44.0503 54.1614C44.2286 53.6555 44.4069 53.1849 44.5614 52.7144C45.0726 51.1851 45.2509 49.844 45.0607 49.0205C44.93 48.4558 44.8705 48.4323 44.3475 48.2323C44.0146 48.1029 43.6104 47.9382 43.1706 47.6206C41.8749 46.6912 40.8763 45.0325 40.282 43.7855C40.0918 43.4091 39.8065 43.0209 39.5212 42.6444C39.0457 42.0092 38.6058 41.421 38.4869 40.6916C38.2135 38.8682 39.2596 38.0447 40.0204 37.4565C40.5672 37.0212 40.912 35.8448 40.9595 34.2096C41.019 32.1627 42.1602 30.8099 44.0741 30.4922C45.5481 30.2569 46.511 30.6569 47.2837 30.9863C47.6403 31.1392 47.9494 31.2687 48.2703 31.3157C48.5675 31.351 48.9598 31.3157 49.3759 31.2451C50.0178 31.151 50.731 31.0687 51.4205 31.2804C52.5855 31.6333 53.0253 32.198 53.3344 32.6097C53.5959 32.9509 53.7861 33.1979 54.963 33.445C56.7342 33.8097 57.2216 34.9037 57.6971 35.9625C58.3271 37.3742 59.6229 38.0094 60.5976 38.2917C60.8116 38.3506 61.0018 38.3976 61.192 38.4447C62.0955 38.68 62.9395 38.9152 63.6408 39.8211C63.8905 40.1622 64.4611 40.9857 64.6156 41.9856L64.6394 41.9974ZM62.464 42.3268C62.4164 41.9856 62.2024 41.5386 61.929 41.1622C61.7032 40.8798 61.5011 40.7975 60.669 40.574C60.4669 40.5269 60.2648 40.4681 60.0151 40.3975C58.6005 39.9858 56.6985 39.0329 55.7238 36.8565C55.2958 35.8919 55.1888 35.7154 54.5588 35.5743C52.7281 35.1978 52.1338 34.5743 51.6345 33.9273C51.4086 33.645 51.3254 33.5156 50.8261 33.3626C50.6003 33.2921 50.1367 33.3626 49.7206 33.4097C49.1975 33.4803 48.6151 33.5626 48.0088 33.4803C47.4025 33.3979 46.9033 33.1862 46.4634 32.998C45.9642 32.7862 45.5481 32.6097 44.9775 32.6097C44.823 32.6097 44.6565 32.6097 44.4782 32.645C43.8363 32.7509 43.2419 33.0215 43.1944 34.292C43.1231 36.6683 42.5287 38.3035 41.4231 39.174C40.698 39.7387 40.6148 39.8446 40.698 40.3857C40.7337 40.5622 41.0784 41.0445 41.3162 41.3504C41.6371 41.7856 42.0056 42.268 42.2909 42.8326C42.9923 44.2561 43.7769 45.3266 44.502 45.856C44.7279 46.0089 44.9537 46.103 45.2153 46.2089C45.9166 46.4912 46.8676 46.8677 47.248 48.5382C47.6046 50.1028 47.141 52.0438 46.6893 53.3967C46.5348 53.8672 46.3446 54.3613 46.1544 54.879C45.4411 56.8318 44.6565 59.0434 44.7397 60.8433C44.7754 61.4315 44.8824 61.6903 44.93 61.7844C45.0132 61.7844 45.1796 61.7374 45.3817 61.6197C45.7858 61.3962 45.8334 61.2315 45.8572 61.1844C45.8928 61.0903 45.8928 60.9492 45.9166 60.7845C45.9523 60.2551 46.0355 59.3493 47.1054 58.714C48.4962 57.9023 50.5052 56.6318 52.2526 55.2201C53.1561 54.4907 53.7386 53.7849 54.3686 53.0438C54.8441 52.4673 55.3553 51.8909 55.9853 51.2909C56.33 50.9615 56.6985 50.7145 57.0314 50.4675C57.602 50.0675 58.0418 49.7499 58.2915 49.2558C58.4341 48.9734 58.5411 48.6205 58.66 48.2205C58.7788 47.8206 58.9215 47.35 59.1355 46.8677C59.6229 45.7266 60.5382 44.5855 60.7997 44.2678C61.0612 43.9385 61.3584 43.6796 61.6556 43.4091C62.1668 42.9268 62.4996 42.5856 62.464 42.3268ZM74.5179 38.7858C74.5416 39.2211 74.5535 39.6564 74.5535 40.1034C74.5535 55.7612 61.6913 68.5016 45.8572 68.5016C30.0231 68.5016 17.1608 55.773 17.1608 40.1034C17.1608 24.4338 30.0231 11.7052 45.8572 11.7052C61.6913 11.7052 73.8165 23.7279 74.5179 38.7741V38.7858ZM66.8148 26.7748C67.6231 27.8689 67.9798 28.857 68.3126 30.104C69.1328 33.2215 69.6083 34.0567 72.0215 35.9272C71.225 30.9746 69.0258 26.4925 65.8281 22.8809C65.8043 23.0339 65.7924 23.1868 65.7687 23.3397C65.6022 25.1279 65.7687 25.3514 66.8029 26.763L66.8148 26.7748ZM24.2576 24.9396C24.5548 24.9749 24.8401 25.0337 25.1135 25.1631C26.2191 25.6337 26.8016 26.6689 27.3246 27.5748L27.3959 27.6924C27.9071 28.5982 28.3945 29.2217 28.9175 29.657C29.7615 30.3628 30.5342 30.6569 30.9622 30.4334C31.1048 30.3628 31.3069 29.8452 31.1167 28.657C30.9146 27.4924 30.7839 25.7631 32.0558 24.4103C34.041 22.2692 36.6682 22.4574 38.9743 22.6339L39.331 22.6692C41.6252 22.8339 43.1587 22.7162 43.872 22.328C44.2761 22.1045 44.3831 21.8222 44.5971 21.034C44.6684 20.7634 44.7516 20.4576 44.8705 20.1399C45.9047 17.3166 49.0549 16.4931 50.945 15.999C51.9079 15.752 52.5379 15.4814 52.8351 15.1991C52.9302 15.1167 52.9897 15.0461 52.8946 14.8226C50.6597 14.2226 48.3179 13.8815 45.8809 13.8815C36.9772 13.8815 29.084 18.2459 24.2695 24.9279L24.2576 24.9396ZM72.3543 40.1034C72.3543 39.7505 72.3543 39.3858 72.3187 39.0446C72.1879 38.8211 71.5698 38.3506 71.2607 38.127C67.956 35.6213 67.1952 34.5037 66.1847 30.6805C65.9113 29.657 65.6379 28.8923 65.0317 28.0806C63.6765 26.2454 63.3555 25.5043 63.5814 23.1633C63.6527 22.4927 63.7478 21.8339 63.8429 21.3163C63.8667 21.1987 63.8786 21.081 63.9023 20.9634C61.3584 18.6224 58.3628 16.7637 55.0581 15.552C54.963 16.0225 54.7133 16.446 54.321 16.8107C53.5603 17.5283 52.4072 17.893 51.4799 18.1283C49.4947 18.6577 47.4976 19.2929 46.9152 20.9046C46.8319 21.1281 46.7606 21.3751 46.7012 21.6222C46.4753 22.4927 46.1781 23.5632 44.93 24.2573C43.7888 24.8926 42.0056 25.0808 39.1645 24.8808L38.796 24.8455C36.7276 24.6926 34.9207 24.5632 33.6606 25.9396C33.3159 26.3043 33.0068 26.8689 33.2683 28.3394C33.7438 31.0569 32.6621 32.0451 31.9726 32.4098C31.5565 32.6333 31.1167 32.7274 30.6412 32.7274C29.6664 32.7274 28.5847 32.2568 27.5029 31.3628C26.7659 30.751 26.124 29.9276 25.4821 28.7982L25.4107 28.6806C25.0541 28.0336 24.6737 27.3748 24.2576 27.2101C23.8178 27.0219 23.0927 27.363 22.5696 27.6689C20.525 31.3745 19.3719 35.6331 19.3719 40.1505C19.3719 54.6084 31.2594 66.3724 45.8691 66.3724C60.4788 66.3488 72.3662 54.5849 72.3662 40.1269L72.3543 40.1034Z" fill="#EC8000"/>
</svg>
