<svg width="50" height="50" viewBox="0 0 50 50" fill="none" xmlns="http://www.w3.org/2000/svg">
<circle cx="25" cy="25" r="25" fill="#404B42"/>
<path d="M32.5787 20.0021C32.4145 20.1692 32.1439 20.0548 32.1439 19.8203C32.1439 19.6063 32.1439 19.3703 32.1337 19.1475C31.8806 9.89354 18.0432 9.89354 17.79 19.1475C17.7842 19.3703 17.7813 19.5946 17.7813 19.8203C17.7813 20.0467 17.5066 20.162 17.3465 20.0021C17.1894 19.8452 17.0265 19.6855 16.8665 19.533C10.1892 13.1697 0.411 23.0393 6.72326 29.7545C6.87646 29.9166 7.03208 30.0779 7.19013 30.2382C14.8063 37.9142 24.9601 37.9149 24.9619 37.9149C24.9636 37.9149 35.1189 37.9142 42.7351 30.2382C42.8941 30.0789 43.0498 29.9176 43.2019 29.7545C49.5142 23.0321 39.7302 13.1697 33.0588 19.533C32.8973 19.6855 32.7329 19.8423 32.5787 20.0021Z" fill="#C9E3CF"/>
<path fill-rule="evenodd" clip-rule="evenodd" d="M30.8454 26.9561C30.631 26.9561 30.557 27.2681 30.6936 27.4333C30.9355 27.7259 31.081 28.1022 31.081 28.5129C31.081 29.4446 30.3316 30.2 29.407 30.2C28.4824 30.2 27.7329 29.4446 27.7329 28.5129C27.7329 28.463 27.6684 28.4383 27.6393 28.4787C27.3753 28.8441 27.1971 29.2543 27.1239 29.6852C27.0827 29.9278 26.8871 30.1286 26.6413 30.1286H26.5054C26.1845 30.1286 25.9198 29.8664 25.9672 29.5487C26.2918 27.3719 28.4206 25.793 30.8454 25.793C33.2701 25.793 35.399 27.3719 35.7237 29.5487C35.771 29.8664 35.5063 30.1286 35.1854 30.1286C34.8646 30.1286 34.6105 29.8651 34.5408 29.5516C34.2233 28.1247 32.7521 26.9561 30.8454 26.9561ZM15.9795 28.5129C15.9795 28.4472 15.895 28.4119 15.8552 28.4642C15.573 28.8353 15.3807 29.2556 15.2994 29.6986C15.2514 29.9602 15.0402 30.1777 14.7744 30.1777H14.6746C14.3538 30.1777 14.089 29.9155 14.1364 29.5978C14.4608 27.4197 16.5899 25.8421 19.0147 25.8421C21.4394 25.8421 23.5685 27.4197 23.893 29.5978C23.9403 29.9155 23.6755 30.1777 23.3547 30.1777C23.0339 30.1777 22.7798 29.9142 22.7101 29.6007C22.3929 28.1729 20.9216 27.0052 19.0147 27.0052C18.8413 27.0052 18.7777 27.2507 18.8939 27.3797C19.1634 27.6791 19.3277 28.0767 19.3277 28.5129C19.3277 29.4446 18.5782 30.2 17.6535 30.2C16.729 30.2 15.9795 29.4446 15.9795 28.5129ZM27.6837 32.3979C27.402 32.2439 27.0516 32.3544 26.8249 32.5816C26.3877 33.0196 25.725 33.3189 24.9581 33.3189C24.1891 33.3189 23.5271 33.0226 23.0909 32.5843C22.8645 32.3568 22.5146 32.245 22.2325 32.3979C21.9503 32.5509 21.8422 32.9081 22.0444 33.1576C22.7061 33.9739 23.7786 34.482 24.9581 34.482C26.1382 34.482 27.2083 33.9685 27.8691 33.1583C28.0721 32.9094 27.9652 32.5519 27.6837 32.3979Z" fill="#3D4B41"/>
</svg>
