<svg width="24" height="25" viewBox="0 0 24 25" fill="none" xmlns="http://www.w3.org/2000/svg">
<g clip-path="url(#clip0_7187_13619)">
<path d="M11.9998 24.1953C18.6272 24.1953 23.9998 18.8227 23.9998 12.1953C23.9998 5.5679 18.6272 0.195312 11.9998 0.195312C5.37234 0.195312 -0.000244141 5.5679 -0.000244141 12.1953C-0.000244141 18.8227 5.37234 24.1953 11.9998 24.1953Z" fill="#98A2B3"/>
<path d="M15.3595 10.6496C15.2867 10.7237 15.1668 10.673 15.1668 10.5691C15.1668 10.4742 15.1668 10.3696 15.1623 10.2709C15.0501 6.17011 8.91818 6.17011 8.806 10.2709C8.80343 10.3696 8.80215 10.469 8.80215 10.5691C8.80215 10.6694 8.68039 10.7205 8.60945 10.6496C8.53984 10.5801 8.46767 10.5093 8.39673 10.4418C5.43777 7.62192 1.10467 11.9955 3.90188 14.9713C3.96977 15.0431 4.03873 15.1146 4.10877 15.1856C7.48382 18.5872 11.9834 18.5875 11.9841 18.5875C11.9849 18.5875 16.4851 18.5872 19.8602 15.1856C19.9306 15.1151 19.9996 15.0436 20.067 14.9713C22.8643 11.9923 18.5286 7.62192 15.5722 10.4418C15.5006 10.5093 15.4278 10.5788 15.3595 10.6496Z" fill="#F4F5F7"/>
<path fill-rule="evenodd" clip-rule="evenodd" d="M14.5907 13.7322C14.4957 13.7322 14.4629 13.8705 14.5234 13.9437C14.6307 14.0734 14.6951 14.2401 14.6951 14.4221C14.6951 14.835 14.363 15.1697 13.9533 15.1697C13.5436 15.1697 13.2114 14.835 13.2114 14.4221C13.2114 14.4 13.1829 14.389 13.1699 14.4069C13.053 14.5689 12.974 14.7507 12.9416 14.9416C12.9233 15.0491 12.8366 15.1381 12.7277 15.1381H12.6675C12.5253 15.1381 12.408 15.0219 12.429 14.8811C12.5728 13.9165 13.5162 13.2168 14.5907 13.2168C15.6652 13.2168 16.6086 13.9165 16.7525 14.8811C16.7734 15.0219 16.6562 15.1381 16.514 15.1381C16.3718 15.1381 16.2592 15.0213 16.2283 14.8824C16.0876 14.2501 15.4356 13.7322 14.5907 13.7322ZM8.00306 14.4221C8.00306 14.393 7.96558 14.3773 7.94795 14.4005C7.82289 14.565 7.73771 14.7512 7.70164 14.9475C7.68038 15.0635 7.58681 15.1598 7.46903 15.1598H7.42479C7.28262 15.1598 7.16531 15.0437 7.18627 14.9029C7.33007 13.9377 8.27353 13.2386 9.34804 13.2386C10.4226 13.2386 11.366 13.9377 11.5098 14.9029C11.5308 15.0437 11.4135 15.1598 11.2713 15.1598C11.1291 15.1598 11.0165 15.0431 10.9856 14.9042C10.8451 14.2714 10.1931 13.754 9.34804 13.754C9.2712 13.754 9.24305 13.8628 9.29452 13.9199C9.41397 14.0526 9.48675 14.2288 9.48675 14.4221C9.48675 14.835 9.15462 15.1697 8.74488 15.1697C8.33518 15.1697 8.00306 14.835 8.00306 14.4221ZM13.1896 16.1437C13.0648 16.0755 12.9095 16.1244 12.8091 16.2251C12.6153 16.4192 12.3217 16.5518 11.9818 16.5518C11.641 16.5518 11.3477 16.4205 11.1544 16.2263C11.054 16.1255 10.899 16.0759 10.774 16.1437C10.649 16.2115 10.601 16.3698 10.6906 16.4804C10.9839 16.8421 11.4591 17.0673 11.9818 17.0673C12.5048 17.0673 12.979 16.8397 13.2718 16.4807C13.3617 16.3704 13.3144 16.212 13.1896 16.1437Z" fill="#98A2B3"/>
</g>
<defs>
<clipPath id="clip0_7187_13619">
<rect width="24" height="24" fill="white" transform="translate(-0.000244141 0.195312)"/>
</clipPath>
</defs>
</svg>
