<svg width="50" height="50" viewBox="0 0 50 50" fill="none" xmlns="http://www.w3.org/2000/svg">
<path d="M50 25C50 11.1929 38.8071 0 25 0C11.1929 0 0 11.1929 0 25C0 38.8071 11.1929 50 25 50C38.8071 50 50 38.8071 50 25Z" fill="#5865F2"/>
<path fill-rule="evenodd" clip-rule="evenodd" d="M28.7458 14.3277C28.9988 13.7564 29.2784 13.1961 29.5842 12.6467C29.6461 12.5367 29.704 12.5159 29.839 12.5405C32.0073 12.9851 34.1599 13.6505 36.3104 14.4585C36.4319 14.5023 36.5837 14.5988 36.6528 14.7144C40.0189 19.8078 42.1935 25.6769 41.5357 33.0316C41.5182 33.3076 41.4646 33.3543 41.2695 33.4954C38.8052 35.2414 36.1914 36.6304 33.3311 37.4301C33.0395 37.5182 32.9456 37.448 32.8264 37.2752C32.2491 36.4292 31.7377 35.5611 31.2353 34.6898C32.2375 34.3022 33.1876 33.8709 34.0269 33.3463L33.3584 32.7792C31.5334 33.9026 28.4706 34.6397 24.9994 34.6397C21.5283 34.6397 18.4655 33.9026 16.6405 32.7792L15.972 33.3463C16.8112 33.8711 17.7614 34.3022 18.7636 34.6898C18.2612 35.5608 17.7498 36.429 17.1724 37.2752C17.0533 37.448 16.9594 37.5182 16.6677 37.4301C13.8074 36.6304 11.1937 35.2414 8.72944 33.4954C8.53431 33.3543 8.48067 33.3076 8.46323 33.0316C7.80543 25.6769 9.98 19.8081 13.3461 14.7144C13.4152 14.5988 13.5669 14.5023 13.6885 14.4585C15.839 13.6505 17.9914 12.9851 20.1599 12.5405C20.2949 12.5161 20.3528 12.5369 20.4147 12.6467C20.7205 13.1961 21.0001 13.7562 21.2531 14.3277C22.3629 14.1344 23.64 14.024 24.9994 14.024C26.3589 14.024 27.6362 14.1344 28.7458 14.3277ZM19.4485 23.0298C17.8124 23.0298 16.4863 24.4904 16.4863 26.292C16.4863 28.0935 17.8126 29.5541 19.4485 29.5541C21.0844 29.5541 22.4107 28.0935 22.4107 26.292C22.4107 24.4904 21.0844 23.0298 19.4485 23.0298ZM30.5504 23.0298C28.9143 23.0298 27.5882 24.4904 27.5882 26.292C27.5882 28.0935 28.9145 29.5541 30.5504 29.5541C32.1863 29.5541 33.5126 28.0935 33.5126 26.292C33.5126 24.4904 32.1863 23.0298 30.5504 23.0298Z" fill="white"/>
</svg>
