<svg width="21" height="25" viewBox="0 0 21 25" fill="none" xmlns="http://www.w3.org/2000/svg">
<path d="M8.32776 10.2637C7.64376 10.2637 7.10376 10.8637 7.10376 11.5957C7.10376 12.3277 7.65576 12.9277 8.32776 12.9277C9.01176 12.9277 9.55176 12.3277 9.55176 11.5957C9.56376 10.8637 9.01176 10.2637 8.32776 10.2637ZM12.7078 10.2637C12.0238 10.2637 11.4838 10.8637 11.4838 11.5957C11.4838 12.3277 12.0358 12.9277 12.7078 12.9277C13.3918 12.9277 13.9318 12.3277 13.9318 11.5957C13.9318 10.8637 13.3918 10.2637 12.7078 10.2637Z" fill="#98A2B3"/>
<path d="M18.5398 0.195312H2.45976C1.10376 0.195312 -0.000244141 1.29931 -0.000244141 2.66731V18.8913C-0.000244141 20.2593 1.10376 21.3633 2.45976 21.3633H16.0678L15.4318 19.1433L16.9678 20.5713L18.4198 21.9153L20.9998 24.1953V2.66731C20.9998 1.29931 19.8958 0.195312 18.5398 0.195312ZM13.9078 15.8673C13.9078 15.8673 13.4758 15.3513 13.1158 14.8953C14.6878 14.4513 15.2878 13.4673 15.2878 13.4673C14.7958 13.7913 14.3278 14.0193 13.9078 14.1753C13.3078 14.4273 12.7318 14.5953 12.1678 14.6913C11.0158 14.9073 9.95976 14.8473 9.05976 14.6793C8.37576 14.5473 7.78776 14.3553 7.29576 14.1633C7.01976 14.0553 6.71976 13.9233 6.41976 13.7553C6.38376 13.7313 6.34776 13.7193 6.31176 13.6953C6.28776 13.6833 6.27576 13.6713 6.26376 13.6593C6.04776 13.5393 5.92776 13.4553 5.92776 13.4553C5.92776 13.4553 6.50376 14.4153 8.02776 14.8713C7.66776 15.3273 7.22376 15.8673 7.22376 15.8673C4.57176 15.7833 3.56376 14.0433 3.56376 14.0433C3.56376 10.1793 5.29176 7.04731 5.29176 7.04731C7.01976 5.75131 8.66376 5.78731 8.66376 5.78731L8.78376 5.93131C6.62376 6.55531 5.62776 7.50331 5.62776 7.50331C5.62776 7.50331 5.89176 7.35931 6.33576 7.15531C7.61976 6.59131 8.63976 6.43531 9.05976 6.39931C9.13176 6.38731 9.19176 6.37531 9.26375 6.37531C9.99576 6.27931 10.8238 6.25531 11.6878 6.35131C12.8278 6.48331 14.0518 6.81931 15.2998 7.50331C15.2998 7.50331 14.3518 6.60331 12.3118 5.97931L12.4798 5.78731C12.4798 5.78731 14.1238 5.75131 15.8518 7.04731C15.8518 7.04731 17.5798 10.1793 17.5798 14.0433C17.5798 14.0433 16.5598 15.7833 13.9078 15.8673Z" fill="#98A2B3"/>
</svg>
