<svg width="25" height="24" viewBox="0 0 25 24" fill="none" xmlns="http://www.w3.org/2000/svg">
<path d="M12.3098 14.2933C13.4708 14.2933 14.412 13.3606 14.412 12.2101C14.412 11.0596 13.4708 10.1269 12.3098 10.1269C11.1487 10.1269 10.2075 11.0596 10.2075 12.2101C10.2075 13.3606 11.1487 14.2933 12.3098 14.2933Z" fill="#EC8000"/>
<path d="M6.29776 13.4484C6.98793 13.4484 7.54742 12.894 7.54742 12.2101C7.54742 11.5262 6.98793 10.9718 6.29776 10.9718C5.60759 10.9718 5.0481 11.5262 5.0481 12.2101C5.0481 12.894 5.60759 13.4484 6.29776 13.4484Z" fill="#EC8000"/>
<path d="M21.4008 15.1792C21.3107 15.4544 21.2084 15.7272 21.0963 15.9927L21.184 15.7875C20.9745 16.2751 20.7309 16.7482 20.4508 17.1996C20.3144 17.4169 20.1731 17.6293 20.0196 17.8369C19.9806 17.89 19.9392 17.9455 19.9003 17.9987C19.8832 18.0204 19.8686 18.0421 19.8515 18.0614C20.0074 17.8562 19.949 17.9383 19.9124 17.9818C19.8296 18.0856 19.7444 18.1894 19.6567 18.2907C19.3181 18.6866 18.9478 19.056 18.5532 19.3963C18.463 19.4736 18.3705 19.5508 18.2755 19.628C18.2243 19.6691 18.1731 19.7174 18.1171 19.7512C18.1171 19.7512 18.3022 19.6112 18.1975 19.6884C18.1658 19.7125 18.1342 19.7367 18.1001 19.7608C17.8954 19.9105 17.6859 20.0553 17.4716 20.1905C16.9722 20.5043 16.4485 20.7771 15.9052 21.004L16.1123 20.9171C15.2597 21.2719 14.3633 21.5133 13.4473 21.634L13.6787 21.6026C12.7677 21.7209 11.8469 21.7209 10.9382 21.6026L11.1697 21.634C10.2586 21.5109 9.36947 21.2695 8.52175 20.9171L8.72881 21.004C8.24161 20.7988 7.77146 20.5598 7.3208 20.2846C7.10156 20.1519 6.88963 20.0095 6.68014 19.8622C6.62898 19.826 6.57539 19.7874 6.52423 19.7487C6.49744 19.727 6.45603 19.7053 6.43167 19.6787C6.43167 19.6787 6.61924 19.8236 6.51693 19.7439C6.40731 19.657 6.29769 19.5701 6.1905 19.4784C5.80075 19.1501 5.43535 18.7952 5.09674 18.4138C5.01148 18.3197 4.92866 18.2231 4.84827 18.1242C4.80686 18.0759 4.76789 18.0252 4.72891 17.9769C4.71186 17.9576 4.69724 17.9359 4.68263 17.9166C4.8702 18.1507 4.74353 17.9938 4.70211 17.9407C4.54865 17.738 4.40249 17.5279 4.26364 17.3155C3.94452 16.8207 3.66682 16.2993 3.4354 15.7585L3.52309 15.9637C3.16744 15.1237 2.92384 14.2426 2.7996 13.3398L2.83127 13.5691C2.71191 12.6663 2.71191 11.7514 2.83127 10.8486L2.7996 11.0779C2.92384 10.1751 3.16744 9.29406 3.52309 8.45402L3.4354 8.6592C3.64246 8.17642 3.88362 7.71053 4.16132 7.26396C4.2953 7.0467 4.43903 6.83669 4.58762 6.6291C4.62416 6.5784 4.66314 6.5253 4.70211 6.4746C4.72404 6.44805 4.74596 6.40701 4.77276 6.38288C4.77276 6.38288 4.6266 6.56875 4.70699 6.46736C4.79468 6.35874 4.88238 6.25011 4.97494 6.1439C5.30624 5.75767 5.66433 5.39558 6.04922 5.06005C6.14422 4.97556 6.24166 4.89349 6.34154 4.81383C6.39026 4.77279 6.44141 4.73417 6.49013 4.69555C6.50962 4.67865 6.53154 4.66417 6.55103 4.64968C6.31474 4.83555 6.47308 4.71003 6.52667 4.66899C6.73129 4.51692 6.94323 4.37208 7.15759 4.23449C7.65697 3.91826 8.18314 3.64308 8.72881 3.41376L8.52175 3.50066C9.36947 3.14822 10.2586 2.90683 11.1697 2.78372L10.9382 2.8151C11.8493 2.69682 12.7701 2.69682 13.6787 2.8151C13.6008 2.80545 13.5253 2.79338 13.4473 2.78372C14.3633 2.90683 15.2597 3.14822 16.1123 3.50066L15.9052 3.41376C16.3876 3.61652 16.8553 3.85309 17.3011 4.12345C17.5179 4.2538 17.7298 4.39381 17.9369 4.54106C18.0343 4.61106 18.1317 4.68348 18.2267 4.75348C17.9783 4.57002 18.1878 4.72451 18.2389 4.76555C18.2901 4.80659 18.3437 4.85004 18.3948 4.89107C18.7968 5.22419 19.1719 5.58628 19.5178 5.97492C19.5982 6.06424 19.6761 6.15597 19.7541 6.2477C19.7979 6.29839 19.8394 6.35149 19.8808 6.4046C19.8978 6.42633 19.9149 6.44564 19.9319 6.46736C19.7541 6.2477 19.8588 6.37322 19.8954 6.41908C20.0513 6.62185 20.1975 6.83186 20.3363 7.0467C20.6627 7.5488 20.9429 8.07986 21.1792 8.62782L21.0915 8.42264C21.2035 8.69058 21.3058 8.96094 21.396 9.23613C21.5372 9.66339 22.005 9.98686 22.4654 9.83719C22.8965 9.6996 23.2254 9.23613 23.0719 8.77748C22.4118 6.77876 21.2011 4.95866 19.5617 3.61894C18.7529 2.95752 17.8711 2.39267 16.9089 1.97747C15.8663 1.52607 14.8017 1.23157 13.6739 1.08674C11.5862 0.818792 9.46691 1.18088 7.55953 2.04506C5.73497 2.87304 4.17838 4.21518 3.02372 5.8325C1.84957 7.49328 1.16993 9.46786 1.0262 11.4835C0.880044 13.5329 1.35019 15.6113 2.31484 17.4266C3.25026 19.1839 4.68019 20.6805 6.37808 21.733C8.12224 22.8144 10.1733 23.401 12.2293 23.4155C14.3462 23.4324 16.4704 22.8386 18.2681 21.7306C20.044 20.6322 21.5275 19.0439 22.4483 17.1779C22.6943 16.6807 22.9063 16.1617 23.0817 15.6354C23.223 15.2058 22.916 14.6747 22.4751 14.5757C21.9977 14.4671 21.5567 14.7181 21.4057 15.1768L21.4008 15.1792Z" fill="#EC8000"/>
<path d="M7.81096 9.66586C7.89135 9.52827 7.97661 9.3955 8.06674 9.26515C8.11546 9.19514 8.16662 9.12514 8.21777 9.05755C8.30303 8.9441 8.10815 9.19273 8.17393 9.11307C8.19585 9.08652 8.21777 9.05755 8.24213 9.031C8.44676 8.78478 8.67087 8.55787 8.91203 8.34786C8.97049 8.29717 9.03139 8.24647 9.08986 8.1982C9.11665 8.17647 9.22384 8.0944 9.10204 8.18613C8.98024 8.27786 9.10447 8.18613 9.13127 8.1644C9.25551 8.07267 9.38461 7.98577 9.51616 7.9037C9.78655 7.73714 10.0691 7.5923 10.3614 7.46678L10.1544 7.55368C10.6538 7.34608 11.1799 7.20366 11.7159 7.13366C11.6379 7.14331 11.5624 7.15538 11.4844 7.16504C12.0106 7.09745 12.5417 7.09986 13.0678 7.16745C12.9899 7.1578 12.9144 7.14573 12.8364 7.13607C13.3553 7.20849 13.862 7.34608 14.3443 7.54644L14.1372 7.45954C14.4929 7.6092 14.8315 7.79024 15.153 8.00267C15.2383 8.05819 15.3211 8.11854 15.4039 8.17888C15.4551 8.21751 15.5672 8.31648 15.3504 8.13543C15.3893 8.16682 15.4307 8.1982 15.4697 8.22958C15.6159 8.35027 15.7596 8.47821 15.8936 8.61339C16.0276 8.74857 16.1567 8.88858 16.2809 9.03341C16.3053 9.06238 16.3686 9.11548 16.3759 9.15169C16.3637 9.10583 16.2346 8.96824 16.3321 9.09859C16.393 9.18066 16.4514 9.26273 16.5099 9.34722C16.7243 9.66344 16.907 10.0014 17.058 10.3538L16.9703 10.1486C17.1725 10.629 17.3113 11.1287 17.3844 11.6429L17.3527 11.4135C17.4234 11.9422 17.4234 12.4781 17.3527 13.0091L17.3844 12.7798C17.3113 13.294 17.1725 13.7961 16.9703 14.274L17.058 14.0688C16.907 14.4213 16.7243 14.7568 16.5099 15.0755C16.4539 15.1599 16.393 15.242 16.3321 15.3241C16.2931 15.3748 16.1932 15.4858 16.3759 15.271C16.3442 15.3096 16.3126 15.3506 16.2809 15.3893C16.1591 15.5341 16.03 15.6765 15.8936 15.8093C15.7572 15.942 15.6159 16.07 15.4697 16.1931C15.4405 16.2172 15.3869 16.28 15.3504 16.2872C15.3966 16.2752 15.5355 16.1472 15.4039 16.2438C15.3211 16.3041 15.2383 16.3621 15.153 16.42C14.8339 16.6324 14.4929 16.8135 14.1372 16.9631L14.3443 16.8762C13.8595 17.0766 13.3553 17.2142 12.8364 17.2866L13.0678 17.2552C12.5417 17.3252 12.0106 17.3252 11.4844 17.2576L11.7159 17.289C11.1775 17.2166 10.6538 17.0766 10.1544 16.869L10.3614 16.9559C10.0764 16.8352 9.79873 16.6928 9.53321 16.531C9.40166 16.449 9.27256 16.3645 9.14589 16.2728C9.11178 16.2486 9.07768 16.2221 9.04357 16.1979C9.26769 16.3572 9.13371 16.2655 9.08742 16.2293C9.02652 16.181 8.96806 16.1303 8.9096 16.0796C8.6733 15.8745 8.45406 15.6524 8.25431 15.4134C8.23239 15.3868 8.20803 15.3579 8.18611 15.3313C8.07892 15.2034 8.31521 15.5051 8.21534 15.3699C8.16905 15.3072 8.12033 15.2444 8.07649 15.1792C7.98148 15.0441 7.89135 14.9041 7.80853 14.7592C7.57954 14.3682 7.01196 14.1968 6.61733 14.4502C6.2227 14.7037 6.05949 15.213 6.30552 15.6307C7.56006 17.767 9.96682 19.1188 12.4686 19.0343C14.7682 18.957 16.8972 17.7187 18.1176 15.79C18.7242 14.8316 19.0628 13.7261 19.1359 12.5988C19.2114 11.4473 18.9532 10.3007 18.4587 9.26273C17.5306 7.3147 15.5696 5.83256 13.4186 5.49943C12.2079 5.31115 10.9534 5.39805 9.80848 5.85187C9.23602 6.07877 8.69279 6.35155 8.20072 6.72088C7.65262 7.13124 7.18491 7.58506 6.76592 8.12578C6.59784 8.34303 6.44437 8.56753 6.30552 8.80409C6.07654 9.19514 6.20077 9.76483 6.61733 9.9845C7.03388 10.2042 7.56249 10.0907 7.80853 9.67551L7.81096 9.66586Z" fill="#EC8000"/>
<path d="M22.7499 13.4484C23.4401 13.4484 23.9996 12.894 23.9996 12.2101C23.9996 11.5262 23.4401 10.9718 22.7499 10.9718C22.0597 10.9718 21.5002 11.5262 21.5002 12.2101C21.5002 12.894 22.0597 13.4484 22.7499 13.4484Z" fill="#EC8000"/>
</svg>
