<svg width="48" height="46" viewBox="0 0 48 46" fill="none" xmlns="http://www.w3.org/2000/svg">
<path d="M47.9625 14.3934C47.9625 14.0184 47.64 13.7259 47.25 13.7259C47.1975 13.7259 47.145 13.7259 47.0925 13.7409L43.11 14.6334C40.5375 15.2859 38.715 17.4609 38.6175 20.0034V20.3634C38.3925 19.9434 38.145 19.5384 37.875 19.1334C36.255 16.6884 34.0275 14.6784 31.395 13.2684L32.655 9.6909C33.51 7.0209 32.43 4.1334 30 2.5809L26.0025 0.285903C25.6725 0.0909029 25.2375 0.195903 25.035 0.510903C25.005 0.555903 24.99 0.600903 24.9675 0.645903L23.52 4.7634C22.785 7.0959 23.4975 9.6234 25.3575 11.2884C24.9675 11.2284 24.57 11.1834 24.1725 11.1459L19.3275 9.7509C16.32 8.8884 12.645 10.2609 11.1375 12.8109L8.55752 17.1759C8.36252 17.4984 8.48252 17.9109 8.82752 18.0909C8.87252 18.1134 8.91752 18.1359 8.97002 18.1509L12.2325 19.0884C11.3925 19.9284 10.665 20.8734 10.08 21.8934C9.51002 22.1934 9.00752 22.5834 8.58002 23.0484C7.21502 21.5784 5.46002 21.0609 3.76502 21.6759C1.86752 22.3959 0.720015 24.2484 0.982515 26.1834C1.32752 28.7784 3.45752 30.4359 5.32502 31.8909C6.32252 32.5959 7.22252 33.4209 7.99502 34.3509C8.21252 34.6584 8.65502 34.7334 8.97752 34.5234C9.04502 34.4784 9.11252 34.4184 9.15752 34.3509C9.27002 34.1934 9.39002 34.0434 9.52502 33.9009C12.6825 40.7484 21.0675 43.8534 28.245 40.8384C35.4225 37.8234 38.6775 29.8284 35.52 22.9809C35.3325 22.5834 35.13 22.1859 34.905 21.8034L37.065 20.4384C41.685 28.1109 38.91 37.8984 30.87 42.3009C23.7375 46.2084 14.6925 44.6109 9.49502 38.5284C9.24002 38.2434 8.79752 38.2134 8.49752 38.4534C8.21252 38.6859 8.16752 39.0984 8.40002 39.3834C14.745 46.8234 26.205 47.9484 34.005 41.8959C39.3975 37.7109 41.82 30.9534 40.245 24.4884L43.5225 23.7534C46.095 23.1009 47.925 20.9184 48.015 18.3834L47.97 14.3784L47.9625 14.3934ZM28.0575 20.6934L25.665 18.5109L28.3425 16.8159C30.0525 15.8184 32.235 15.9759 33.765 17.2209L35.205 18.5409C33.27 18.1809 31.305 18.0009 29.34 18.0159C28.95 18.0309 28.6425 18.3384 28.6575 18.7134C28.6725 19.0734 28.9725 19.3584 29.3475 19.3659H29.355C31.365 19.3509 33.3675 19.5459 35.3325 19.9284L33.48 21.0984C31.77 22.0959 29.5875 21.9384 28.0575 20.6934ZM13.77 19.5459L13.8825 19.5759C14.4975 19.7484 15.1275 19.8384 15.7725 19.8309C18.2925 19.8309 20.8725 18.5484 22.0725 16.5084L22.23 16.2384C22.3275 16.2384 22.425 16.2384 22.515 16.2384C23.685 16.2384 24.8475 16.3884 25.98 16.6884L24.1575 17.8434C23.835 18.0459 23.745 18.4659 23.9625 18.7734C23.9925 18.8184 24.0225 18.8559 24.06 18.8859L27.09 21.6534C27.855 22.3284 28.8 22.7784 29.82 22.9584C29.7975 22.9884 29.7825 23.0259 29.76 23.0559C29.3925 23.7009 28.9575 24.3084 28.4625 24.8784C27.5175 26.0034 24.4125 27.1509 23.145 27.1659C21.2775 27.1959 20.0025 27.1884 19.275 26.7909C18.795 26.5284 18.3225 26.0184 18.1275 24.0459C17.8875 21.6159 16.725 21.1359 15.39 20.5809C14.76 20.3409 14.16 20.0409 13.5975 19.6809C13.6575 19.6284 13.71 19.5759 13.77 19.5234V19.5459ZM24.4275 12.5334C26.9025 12.7959 29.2875 13.5909 31.4025 14.8509C30.06 14.7084 28.71 15.0009 27.57 15.6909L27.48 15.7509C26.055 15.2409 24.5475 14.9559 23.025 14.9109L24.4275 12.5409V12.5334ZM24.8625 5.1984L26.0325 1.8759L29.265 3.7509C31.1325 4.9734 31.9575 7.2084 31.3125 9.2784L30.5325 11.4909C29.85 9.6009 29.085 7.6959 28.29 5.8734C28.14 5.5284 27.7275 5.3709 27.3675 5.5134C27.0075 5.6559 26.835 6.0534 26.985 6.3909C27.7875 8.2284 28.56 10.1709 29.25 12.0834L26.9025 10.7259C25.035 9.5034 24.21 7.2684 24.855 5.1984H24.8625ZM12.3675 13.4859C13.5525 11.4834 16.5525 10.3734 18.9225 11.0484L20.505 11.5059C18.33 11.7759 16.1175 12.5709 12.975 15.1509C12.6825 15.3909 12.645 15.8184 12.9 16.1034C13.155 16.3884 13.5975 16.4184 13.8975 16.1709C17.7 13.0434 19.8975 12.7959 22.7025 12.7059L20.8425 15.8484C19.6575 17.8509 16.6575 18.9609 14.2875 18.2859L10.2225 17.1159L12.3675 13.4859ZM8.57252 32.9034C7.84502 32.1684 7.05752 31.4859 6.21752 30.8634C4.47002 29.4984 2.65502 28.0884 2.37752 26.0259C2.19002 24.7134 2.96252 23.4459 4.25252 22.9509C4.54502 22.8459 4.85252 22.7859 5.16002 22.7859C6.18002 22.7859 7.17002 23.3934 7.98752 24.5409C8.20502 24.8484 8.64752 24.9309 8.97002 24.7209C9.04502 24.6759 9.10502 24.6084 9.15752 24.5409C10.215 23.0559 11.5725 22.4784 12.8925 22.9509C14.1825 23.4459 14.955 24.7134 14.7675 26.0259C14.49 28.0884 12.6825 29.4984 10.9275 30.8634C10.0875 31.4859 9.30002 32.1684 8.57252 32.9034ZM10.5975 32.8884C10.98 32.5659 11.4 32.2359 11.82 31.9059C12.855 31.1559 13.8075 30.3009 14.655 29.3634C14.8425 29.4309 15.0525 29.5134 15.2775 29.6109C15.735 30.6984 15.885 31.8759 15.7125 33.0384C15.585 34.1934 15.18 35.0709 14.58 35.4984C14.37 35.6484 13.6875 36.0759 12.93 36.5259C11.9325 35.4534 11.1375 34.2159 10.59 32.8809L10.5975 32.8884ZM22.5075 40.6434C22.0575 40.6434 21.6075 40.6209 21.1575 40.5759C21.0075 39.4584 21.27 38.8809 22.05 38.5209C23.3175 37.9359 24.015 36.2259 24.5775 34.8534C24.7275 34.4859 24.915 34.0284 25.0725 33.7134C25.2375 34.0509 25.38 34.3959 25.4925 34.7559C25.5825 35.0259 25.635 35.3034 25.65 35.5884C25.6275 36.0159 25.8075 36.4284 26.1525 36.7059C26.655 37.0509 27.3525 36.9609 29.07 36.5334C30.855 36.0909 31.1925 36.1359 31.7325 36.8784C29.325 39.2859 25.9875 40.6434 22.5075 40.6434ZM32.67 35.8434C32.3625 35.4534 31.935 35.1609 31.4475 35.0109C30.7425 34.8084 29.9475 34.9284 28.725 35.2359C28.185 35.3859 27.63 35.4984 27.075 35.5734C27.075 35.5434 27.075 35.5134 27.0675 35.4834C27.045 35.0934 26.97 34.7109 26.85 34.3359C26.3775 32.9709 25.9275 32.1234 25.11 32.1009C24.21 32.0784 23.8125 33.0384 23.2725 34.3734C22.8225 35.4684 22.215 36.9609 21.45 37.3134C20.235 37.8534 19.5375 39.0909 19.725 40.3584C17.58 39.9009 15.6 38.9259 13.9725 37.5234C14.625 37.1334 15.21 36.7584 15.45 36.5934C17.3775 35.2209 17.2425 32.1684 17.1525 31.2684C17.085 30.5484 16.83 28.8384 15.99 28.4484C15.8175 28.3659 15.6525 28.2984 15.495 28.2309C15.855 27.6009 16.095 26.9184 16.1925 26.2059C16.455 24.2784 15.315 22.4184 13.4175 21.6984C12.99 21.5409 12.5325 21.4584 12.0675 21.4434C12.255 21.1884 12.45 20.9484 12.6525 20.7084C13.335 21.1584 14.07 21.5409 14.8425 21.8334C16.065 22.3434 16.575 22.5534 16.74 24.1884C17.13 28.0659 18.795 28.5384 22.17 28.5384C22.4925 28.5384 22.8375 28.5384 23.1975 28.5309C24.8175 28.5009 28.3275 27.2409 29.5875 25.7334C30.1275 25.1109 30.6 24.4434 31.0125 23.7384C31.1325 23.5134 31.275 23.2959 31.44 23.0934C32.2275 23.0559 33.0075 22.8684 33.72 22.5384C36.1875 26.7759 35.7825 32.0034 32.7 35.8509L32.67 35.8434ZM43.1925 22.4484L41.6325 22.8009C42.795 21.5934 43.8075 20.2659 44.655 18.8334C44.8425 18.5034 44.715 18.0984 44.37 17.9184C44.0325 17.7459 43.62 17.8584 43.425 18.1659C42.5025 19.7184 41.37 21.1509 40.0575 22.4184L40.035 19.9884C40.1325 18.0759 41.505 16.4484 43.44 15.9459L46.5675 15.2409L46.5975 18.3984C46.5 20.3109 45.1275 21.9459 43.1925 22.4484Z" fill="black"/>
</svg>
