<svg width="20" height="20" viewBox="0 0 20 20" fill="none" xmlns="http://www.w3.org/2000/svg">
<path d="M11.6668 1.66797H5.00016C4.55814 1.66797 4.13421 1.84356 3.82165 2.15612C3.50909 2.46868 3.3335 2.89261 3.3335 3.33464V16.668C3.3335 17.11 3.50909 17.5339 3.82165 17.8465C4.13421 18.159 4.55814 18.3346 5.00016 18.3346H15.0002C15.4422 18.3346 15.8661 18.159 16.1787 17.8465C16.4912 17.5339 16.6668 17.11 16.6668 16.668V6.66797M11.6668 1.66797L16.6668 6.66797M11.6668 1.66797V6.66797H16.6668M13.3335 10.8346H6.66683M13.3335 14.168H6.66683M8.3335 7.5013H6.66683" stroke="#6172F3" stroke-width="1.67" stroke-linecap="round" stroke-linejoin="round"/>
</svg>
