<svg width="80" height="80" viewBox="0 0 80 80" fill="none" xmlns="http://www.w3.org/2000/svg">
<g filter="url(#filter0_d_3160_9972)">
<path d="M5 29.8889C5 21.177 5 16.821 6.69545 13.4935C8.18682 10.5665 10.5665 8.18682 13.4935 6.69545C16.821 5 21.177 5 29.8889 5H50.1111C58.823 5 63.179 5 66.5065 6.69545C69.4335 8.18682 71.8132 10.5665 73.3045 13.4935C75 16.821 75 21.177 75 29.8889V50.1111C75 58.823 75 63.179 73.3045 66.5065C71.8132 69.4335 69.4335 71.8132 66.5065 73.3045C63.179 75 58.823 75 50.1111 75H29.8889C21.177 75 16.821 75 13.4935 73.3045C10.5665 71.8132 8.18682 69.4335 6.69545 66.5065C5 63.179 5 58.823 5 50.1111V29.8889Z" fill="white"/>
<path d="M61.2318 15H53.1035V26.7781H64.9972V18.3211C65.0004 18.3211 64.4095 15.3212 61.2318 15Z" fill="#1967D2"/>
<path d="M53.1064 64.9462V64.9751V65.0008L65.0001 53.2227H64.8936L53.1064 64.9462Z" fill="#1967D2"/>
<path d="M64.9992 53.2228V53.1172L64.8936 53.2228H64.9992Z" fill="#FBBC05"/>
<path d="M65.0001 26.7773H53.1064V53.1151H65.0001V26.7773Z" fill="#FBBC05"/>
<path d="M64.8936 53.2227H53.1064V64.9462L64.8936 53.2227Z" fill="#EA4335"/>
<path d="M53.1064 53.2228H64.8936L65.0001 53.1172H53.1064V53.2228Z" fill="#EA4335"/>
<path d="M53.0771 64.9741H53.1059V64.9453L53.0771 64.9741Z" fill="#34A853"/>
<path d="M26.626 53.1172V64.9756H53.0776L53.1066 53.1172H26.626Z" fill="#34A853"/>
<path d="M53.1059 53.2232V53.1172L53.0771 64.9756L53.1059 64.9467V53.2232Z" fill="#34A853"/>
<path d="M15 53.1172V61.3622C15.1066 64.0377 18.0001 64.9756 18.0001 64.9756H26.6257V53.1172H15Z" fill="#188038"/>
<path d="M26.6257 26.7781H53.1063V15H18.3359C18.3359 15 15.2131 15.3212 15 18.6391V53.1159H26.6257V26.7781Z" fill="#4285F4"/>
<path d="M35.2893 47.7832C34.6834 47.7832 34.0992 47.7043 33.5367 47.5465C32.9886 47.3887 32.4837 47.152 32.0221 46.8364C31.5605 46.5064 31.1494 46.0975 30.7888 45.6097C30.4427 45.1219 30.1758 44.5553 29.9883 43.9097L32.6496 42.8552C32.8371 43.5725 33.1544 44.1177 33.6016 44.4907C34.0488 44.8494 34.6113 45.0287 35.2893 45.0287C35.5922 45.0287 35.8807 44.9857 36.1547 44.8996C36.4288 44.7991 36.6668 44.6629 36.8687 44.4907C37.0707 44.3185 37.2293 44.1177 37.3447 43.8881C37.4746 43.6442 37.5395 43.3717 37.5395 43.0704C37.5395 42.4391 37.3015 41.9442 36.8255 41.5855C36.3639 41.2268 35.722 41.0475 34.8998 41.0475H33.6232V38.4866H34.7916C35.0801 38.4866 35.3614 38.4508 35.6354 38.379C35.9095 38.3073 36.1475 38.1997 36.3495 38.0562C36.5658 37.8984 36.7317 37.7048 36.8471 37.4752C36.9769 37.2313 37.0418 36.9516 37.0418 36.6359C37.0418 36.1482 36.8687 35.7536 36.5225 35.4523C36.1764 35.1367 35.7076 34.9789 35.1162 34.9789C34.4815 34.9789 33.9911 35.1511 33.6449 35.4954C33.3131 35.8254 33.0823 36.1984 32.9525 36.6144L30.3561 35.5599C30.4859 35.2013 30.6807 34.8354 30.9403 34.4624C31.1999 34.0751 31.5245 33.7308 31.9139 33.4295C32.3178 33.1138 32.7866 32.8628 33.3203 32.6763C33.854 32.4754 34.4671 32.375 35.1594 32.375C35.8662 32.375 36.5081 32.4754 37.0851 32.6763C37.6765 32.8771 38.1814 33.1569 38.5997 33.5156C39.018 33.8599 39.3425 34.2759 39.5733 34.7637C39.8041 35.2371 39.9195 35.7536 39.9195 36.3131C39.9195 36.7435 39.8618 37.1309 39.7464 37.4752C39.6454 37.8195 39.5084 38.128 39.3353 38.4006C39.1622 38.6732 38.9603 38.9099 38.7295 39.1107C38.5131 39.2972 38.2895 39.4479 38.0587 39.5626V39.7348C38.7511 40.0074 39.3209 40.445 39.768 41.0475C40.2296 41.6501 40.4604 42.4104 40.4604 43.3286C40.4604 43.9742 40.3378 44.5696 40.0926 45.1148C39.8474 45.6456 39.494 46.1119 39.0324 46.5136C38.5852 46.9153 38.0443 47.2237 37.4096 47.4389C36.775 47.6685 36.0682 47.7832 35.2893 47.7832Z" fill="#4285F4"/>
<path d="M45.6273 47.4389V36.0334L43.0093 37.1309L41.9707 34.7422L46.3197 32.7193H48.4617V47.4389H45.6273Z" fill="#4285F4"/>
</g>
<defs>
<filter id="filter0_d_3160_9972" x="-2" y="-1" width="84" height="84" filterUnits="userSpaceOnUse" color-interpolation-filters="sRGB">
<feFlood flood-opacity="0" result="BackgroundImageFix"/>
<feColorMatrix in="SourceAlpha" type="matrix" values="0 0 0 0 0 0 0 0 0 0 0 0 0 0 0 0 0 0 127 0" result="hardAlpha"/>
<feOffset dy="1"/>
<feGaussianBlur stdDeviation="1"/>
<feColorMatrix type="matrix" values="0 0 0 0 0.0627451 0 0 0 0 0.0941176 0 0 0 0 0.156863 0 0 0 0.05 0"/>
<feBlend mode="normal" in2="BackgroundImageFix" result="effect1_dropShadow_3160_9972"/>
<feBlend mode="normal" in="SourceGraphic" in2="effect1_dropShadow_3160_9972" result="shape"/>
</filter>
</defs>
</svg>
