<svg width="80" height="80" viewBox="0 0 80 80" fill="none" xmlns="http://www.w3.org/2000/svg">
<g filter="url(#filter0_d_3160_9961)">
<path d="M5 29.8889C5 21.177 5 16.821 6.69545 13.4935C8.18682 10.5665 10.5665 8.18682 13.4935 6.69545C16.821 5 21.177 5 29.8889 5H50.1111C58.823 5 63.179 5 66.5065 6.69545C69.4335 8.18682 71.8132 10.5665 73.3045 13.4935C75 16.821 75 21.177 75 29.8889V50.1111C75 58.823 75 63.179 73.3045 66.5065C71.8132 69.4335 69.4335 71.8132 66.5065 73.3045C63.179 75 58.823 75 50.1111 75H29.8889C21.177 75 16.821 75 13.4935 73.3045C10.5665 71.8132 8.18682 69.4335 6.69545 66.5065C5 63.179 5 58.823 5 50.1111V29.8889Z" fill="white"/>
<path d="M40.0048 31.1287L31.3526 15.8594C31.6398 15.5669 31.9703 15.375 32.3009 15.2461C29.7494 16.0858 28.5787 18.951 28.5787 18.951L12.7724 46.8383C12.55 47.7126 12.4882 48.502 12.516 49.1971H29.7679L40.0048 31.1287Z" fill="#34A853"/>
<path d="M40.0049 31.1287L50.2417 49.1971H67.4937C67.5215 48.502 67.4597 47.7126 67.2373 46.8383L51.431 18.951C51.431 18.951 50.2572 16.0858 47.7088 15.2461C48.0362 15.375 48.3698 15.5669 48.6571 15.8594L40.0049 31.1287Z" fill="#FBBC05"/>
<path d="M40.0048 31.1286L48.657 15.8593C48.3697 15.5668 48.0361 15.3749 47.7087 15.246C47.3318 15.1233 46.9271 15.0415 46.4885 15.0195H46.0313H33.9782H33.521C33.0854 15.0384 32.6777 15.1202 32.3009 15.246C31.9734 15.3749 31.6398 15.5668 31.3525 15.8593L40.0048 31.1286Z" fill="#188038"/>
<path d="M29.7715 49.1953L21.2182 64.2916C21.2182 64.2916 20.934 64.1533 20.5479 63.8671C21.7618 64.8011 22.9418 64.9993 22.9418 64.9993H56.5344C58.3878 64.9993 58.7739 64.2916 58.7739 64.2916C58.7801 64.2885 58.7832 64.2853 58.7893 64.2822L50.2422 49.1953H29.7715Z" fill="#4285F4"/>
<path d="M29.7714 49.1953H12.5195C12.606 51.2459 13.4956 52.4442 13.4956 52.4442L14.1443 53.5701C14.1907 53.6361 14.2185 53.6739 14.2185 53.6739L15.6301 56.1522L18.7994 61.6686C18.8921 61.8919 19.0002 62.0964 19.1145 62.2914C19.1577 62.3574 19.1979 62.4298 19.2442 62.4927C19.2566 62.5115 19.2689 62.5304 19.2813 62.5493C19.6736 63.1028 20.1122 63.5305 20.5509 63.867C20.937 64.1564 21.2212 64.2916 21.2212 64.2916L29.7714 49.1953Z" fill="#1967D2"/>
<path d="M50.2422 49.1953H67.4941C67.4076 51.2459 66.518 52.4442 66.518 52.4442L65.8693 53.5701C65.823 53.6361 65.7952 53.6739 65.7952 53.6739L64.3835 56.1522L61.2142 61.6686C61.1215 61.8919 61.0134 62.0964 60.8991 62.2914C60.8559 62.3574 60.8157 62.4298 60.7694 62.4927C60.757 62.5115 60.7447 62.5304 60.7323 62.5493C60.34 63.1028 59.9014 63.5305 59.4628 63.867C59.0766 64.1564 58.7925 64.2916 58.7925 64.2916L50.2422 49.1953Z" fill="#EA4335"/>
</g>
<defs>
<filter id="filter0_d_3160_9961" x="-2" y="-1" width="84" height="84" filterUnits="userSpaceOnUse" color-interpolation-filters="sRGB">
<feFlood flood-opacity="0" result="BackgroundImageFix"/>
<feColorMatrix in="SourceAlpha" type="matrix" values="0 0 0 0 0 0 0 0 0 0 0 0 0 0 0 0 0 0 127 0" result="hardAlpha"/>
<feOffset dy="1"/>
<feGaussianBlur stdDeviation="1"/>
<feColorMatrix type="matrix" values="0 0 0 0 0.0627451 0 0 0 0 0.0941176 0 0 0 0 0.156863 0 0 0 0.05 0"/>
<feBlend mode="normal" in2="BackgroundImageFix" result="effect1_dropShadow_3160_9961"/>
<feBlend mode="normal" in="SourceGraphic" in2="effect1_dropShadow_3160_9961" result="shape"/>
</filter>
</defs>
</svg>
