<svg width="24" height="25" viewBox="0 0 24 25" fill="none" xmlns="http://www.w3.org/2000/svg">
<path fill-rule="evenodd" clip-rule="evenodd" d="M16.6033 6.74398C15.3643 5.56228 13.7108 4.91852 12 4.94497C8.86937 4.94497 6.21056 7.05702 5.26254 9.90103V9.90109C4.75988 11.3914 4.75987 13.0053 5.26254 14.4956H5.26694C6.21935 17.3352 8.87377 19.4473 12.0044 19.4473C13.6204 19.4473 15.0078 19.0339 16.0831 18.3038V18.3009C17.3485 17.4631 18.2128 16.1447 18.4817 14.6544H12V10.0334H23.3188C23.4599 10.8359 23.526 11.656 23.526 12.4717C23.526 16.1216 22.2216 19.2074 19.9521 21.2974L19.9544 21.2992C17.9658 23.1335 15.2364 24.1961 12 24.1961C7.46278 24.1961 3.3136 21.6387 1.27649 17.5865V17.5865C-0.425501 14.1958 -0.425496 10.2009 1.2765 6.81015H1.27653L1.27649 6.81012C3.3136 2.75353 7.46278 0.196121 12 0.196121C14.9807 0.160847 17.86 1.28082 20.0294 3.31793L16.6033 6.74398Z" fill="#98A2B3"/>
</svg>
