<svg width="98" height="50" viewBox="0 0 98 50" fill="none" xmlns="http://www.w3.org/2000/svg">
<path d="M96.9995 1C81.4026 2.29974 80.4367 33.4164 64.9995 37C52.2697 39.9551 45.8236 23.1804 32.9995 25C19.0898 26.9737 14.6386 44.4536 0.999512 49H96.9995V1Z" fill="#ECFDF3"/>
<path d="M96.9995 1C81.4026 2.29974 80.4367 33.4164 64.9995 37C52.2697 39.9551 45.8236 23.1804 32.9995 25C19.0898 26.9737 14.6386 44.4536 0.999512 49H96.9995V1Z" fill="url(#paint0_linear_3160_17519)"/>
<path d="M0.999512 49C14.6386 44.4536 19.0898 26.9737 32.9995 25C45.8236 23.1804 52.2697 39.9551 64.9995 37C80.4367 33.4164 81.4026 2.29974 96.9995 1" stroke="#12B76A" stroke-width="1.5" stroke-linecap="round" stroke-linejoin="round"/>
<defs>
<linearGradient id="paint0_linear_3160_17519" x1="48.9995" y1="1" x2="48.9995" y2="49" gradientUnits="userSpaceOnUse">
<stop offset="0.641167" stop-color="white" stop-opacity="0"/>
<stop offset="1" stop-color="white"/>
</linearGradient>
</defs>
</svg>
