<svg width="24" height="25" viewBox="0 0 24 25" fill="none" xmlns="http://www.w3.org/2000/svg">
<path d="M12.0139 2.3582C15.2202 2.3582 15.5999 2.37227 16.8608 2.42852C18.0327 2.48008 18.6655 2.67695 19.0874 2.84102C19.6452 3.05664 20.0483 3.31914 20.4655 3.73633C20.8874 4.1582 21.1452 4.55664 21.3608 5.11445C21.5249 5.53633 21.7217 6.17383 21.7733 7.34102C21.8295 8.60664 21.8436 8.98633 21.8436 12.1879C21.8436 15.3941 21.8295 15.7738 21.7733 17.0348C21.7217 18.2066 21.5249 18.8395 21.3608 19.2613C21.1452 19.8191 20.8827 20.2223 20.4655 20.6395C20.0436 21.0613 19.6452 21.3191 19.0874 21.5348C18.6655 21.6988 18.028 21.8957 16.8608 21.9473C15.5952 22.0035 15.2155 22.0176 12.0139 22.0176C8.80767 22.0176 8.42798 22.0035 7.16704 21.9473C5.99517 21.8957 5.36235 21.6988 4.94048 21.5348C4.38267 21.3191 3.97954 21.0566 3.56235 20.6395C3.14048 20.2176 2.88267 19.8191 2.66704 19.2613C2.50298 18.8395 2.3061 18.202 2.25454 17.0348C2.19829 15.7691 2.18423 15.3895 2.18423 12.1879C2.18423 8.98164 2.19829 8.60195 2.25454 7.34102C2.3061 6.16914 2.50298 5.53633 2.66704 5.11445C2.88267 4.55664 3.14517 4.15352 3.56235 3.73633C3.98423 3.31445 4.38267 3.05664 4.94048 2.84102C5.36235 2.67695 5.99985 2.48008 7.16704 2.42852C8.42798 2.37227 8.80767 2.3582 12.0139 2.3582ZM12.0139 0.197266C8.7561 0.197266 8.34829 0.211328 7.0686 0.267578C5.7936 0.323828 4.91704 0.530078 4.15767 0.825391C3.36548 1.13477 2.69517 1.54258 2.02954 2.21289C1.35923 2.87852 0.951416 3.54883 0.642041 4.33633C0.346729 5.10039 0.140479 5.97227 0.0842285 7.24727C0.0279785 8.53164 0.013916 8.93945 0.013916 12.1973C0.013916 15.4551 0.0279785 15.8629 0.0842285 17.1426C0.140479 18.4176 0.346729 19.2941 0.642041 20.0535C0.951416 20.8457 1.35923 21.516 2.02954 22.1816C2.69517 22.8473 3.36548 23.2598 4.15298 23.5645C4.91704 23.8598 5.78892 24.066 7.06392 24.1223C8.3436 24.1785 8.75142 24.1926 12.0092 24.1926C15.267 24.1926 15.6749 24.1785 16.9545 24.1223C18.2295 24.066 19.1061 23.8598 19.8655 23.5645C20.653 23.2598 21.3233 22.8473 21.9889 22.1816C22.6545 21.516 23.067 20.8457 23.3717 20.0582C23.667 19.2941 23.8733 18.4223 23.9295 17.1473C23.9858 15.8676 23.9999 15.4598 23.9999 12.202C23.9999 8.94414 23.9858 8.53633 23.9295 7.25664C23.8733 5.98164 23.667 5.10508 23.3717 4.3457C23.0764 3.54883 22.6686 2.87852 21.9983 2.21289C21.3327 1.54727 20.6624 1.13477 19.8749 0.830078C19.1108 0.534766 18.2389 0.328516 16.9639 0.272266C15.6795 0.211328 15.2717 0.197266 12.0139 0.197266Z" fill="#98A2B3"/>
<path d="M12.0139 6.0332C8.61079 6.0332 5.84985 8.79414 5.84985 12.1973C5.84985 15.6004 8.61079 18.3613 12.0139 18.3613C15.417 18.3613 18.178 15.6004 18.178 12.1973C18.178 8.79414 15.417 6.0332 12.0139 6.0332ZM12.0139 16.1957C9.8061 16.1957 8.01548 14.4051 8.01548 12.1973C8.01548 9.98945 9.8061 8.19883 12.0139 8.19883C14.2217 8.19883 16.0124 9.98945 16.0124 12.1973C16.0124 14.4051 14.2217 16.1957 12.0139 16.1957Z" fill="#98A2B3"/>
<path d="M19.8608 5.78965C19.8608 6.58653 19.2139 7.22871 18.4217 7.22871C17.6249 7.22871 16.9827 6.58184 16.9827 5.78965C16.9827 4.99277 17.6295 4.35059 18.4217 4.35059C19.2139 4.35059 19.8608 4.99746 19.8608 5.78965Z" fill="#98A2B3"/>
</svg>
