<svg width="25" height="24" viewBox="0 0 25 24" fill="none" xmlns="http://www.w3.org/2000/svg">
<path d="M5.43 4.93L9.67 9.17M15.33 14.83L19.57 19.07M19.57 4.93L15.33 9.17L18.86 5.64M5.43 19.07L9.67 14.83M22.5 12C22.5 17.5228 18.0228 22 12.5 22C6.97715 22 2.5 17.5228 2.5 12C2.5 6.47715 6.97715 2 12.5 2C18.0228 2 22.5 6.47715 22.5 12ZM16.5 12C16.5 14.2091 14.7091 16 12.5 16C10.2909 16 8.5 14.2091 8.5 12C8.5 9.79086 10.2909 8 12.5 8C14.7091 8 16.5 9.79086 16.5 12Z" stroke="#EC8000" stroke-width="2" stroke-linecap="round" stroke-linejoin="round"/>
</svg>
