<svg width="56" height="52" viewBox="0 0 56 52" fill="none" xmlns="http://www.w3.org/2000/svg">
<rect x="4" width="48" height="48" rx="24" fill="#FFEDD2"/>
<rect x="4" width="48" height="48" rx="24" stroke="#FFFCF8" stroke-width="8"/>
<path d="M36.8401 16.6118C36.3294 16.1008 35.7229 15.6955 35.0555 15.4189C34.388 15.1423 33.6726 15 32.9501 15C32.2276 15 31.5122 15.1423 30.8448 15.4189C30.1773 15.6955 29.5709 16.1008 29.0601 16.6118L28.0001 17.6718L26.9401 16.6118C25.9084 15.5801 24.5092 15.0005 23.0501 15.0005C21.5911 15.0005 20.1918 15.5801 19.1601 16.6118C18.1284 17.6435 17.5488 19.0428 17.5488 20.5018C17.5488 21.9609 18.1284 23.3601 19.1601 24.3918L20.2201 25.4518L28.0001 33.2318L35.7801 25.4518L36.8401 24.3918C37.3511 23.8811 37.7565 23.2746 38.033 22.6072C38.3096 21.9397 38.4519 21.2243 38.4519 20.5018C38.4519 19.7793 38.3096 19.0639 38.033 18.3965C37.7565 17.729 37.3511 17.1226 36.8401 16.6118V16.6118Z" stroke="#EC8000" stroke-width="2" stroke-linecap="round" stroke-linejoin="round"/>
</svg>
