<svg width="64" height="64" viewBox="0 0 64 64" fill="none" xmlns="http://www.w3.org/2000/svg">
<path d="M32 63.7644C49.5433 63.7644 63.765 49.5427 63.765 31.9994C63.765 14.456 49.5433 0.234375 32 0.234375C14.4567 0.234375 0.234985 14.456 0.234985 31.9994C0.234985 49.5427 14.4567 63.7644 32 63.7644Z" fill="#FF0420"/>
<path d="M22.7375 40.4353C20.8443 40.4353 19.2941 39.9906 18.0871 39.1012C16.8927 38.1991 16.2955 36.9031 16.2955 35.2386C16.2955 34.8828 16.3337 34.4635 16.4099 33.9553C16.6132 32.8117 16.9054 31.4395 17.2866 29.8258C18.3666 25.455 21.1619 23.2695 25.6599 23.2695C26.8796 23.2695 27.9851 23.4728 28.9507 23.8921C29.9164 24.286 30.6787 24.8959 31.2378 25.7091C31.7969 26.5096 32.0764 27.4625 32.0764 28.5679C32.0764 28.8983 32.0383 29.3176 31.962 29.8258C31.7206 31.2362 31.4411 32.6211 31.098 33.9553C30.539 36.128 29.586 37.7671 28.2138 38.8471C26.8542 39.9144 25.0246 40.4353 22.7375 40.4353ZM23.0805 37.0047C23.97 37.0047 24.7196 36.7379 25.3422 36.2169C25.9775 35.696 26.4349 34.8955 26.7017 33.8028C27.0702 32.3035 27.3498 31.0075 27.5403 29.8894C27.6039 29.559 27.642 29.2159 27.642 28.8602C27.642 27.4117 26.8923 26.6874 25.3803 26.6874C24.4909 26.6874 23.7285 26.9543 23.0932 27.4752C22.4706 27.9962 22.0259 28.7966 21.7591 29.8894C21.4669 30.9567 21.1873 32.2527 20.8951 33.8028C20.8316 34.1205 20.7935 34.4508 20.7935 34.8066C20.7808 36.2805 21.5558 37.0047 23.0805 37.0047Z" fill="white"/>
<path d="M33.1816 40.2074C33.0037 40.2074 32.8767 40.1566 32.775 40.0422C32.6988 39.9152 32.6734 39.7754 32.6988 39.6102L35.9897 24.1089C36.0151 23.931 36.104 23.7913 36.2565 23.6769C36.3962 23.5625 36.5487 23.5117 36.7139 23.5117H43.0542C44.8203 23.5117 46.2307 23.8802 47.298 24.6044C48.378 25.3414 48.9244 26.396 48.9244 27.7809C48.9244 28.1748 48.8735 28.5941 48.7846 29.0261C48.3907 30.8558 47.5902 32.2026 46.3705 33.0793C45.1761 33.9561 43.537 34.3881 41.4532 34.3881H38.2386L37.1459 39.6102C37.1078 39.7881 37.0315 39.9279 36.8791 40.0422C36.7393 40.1566 36.5868 40.2074 36.4217 40.2074H33.1816ZM41.6184 31.0972C42.2918 31.0972 42.8636 30.9193 43.3591 30.5508C43.8674 30.1824 44.1977 29.6614 44.3629 28.9753C44.4137 28.7085 44.4391 28.4671 44.4391 28.2638C44.4391 27.8063 44.2994 27.4506 44.0326 27.2092C43.7657 26.955 43.2956 26.828 42.6476 26.828H39.7887L38.8866 31.0972H41.6184Z" fill="white"/>
</svg>
