<svg width="64" height="64" viewBox="0 0 64 64" fill="none" xmlns="http://www.w3.org/2000/svg">
<path d="M31.9875 0.285156C49.5375 0.285156 63.7625 14.4868 63.7625 32.008C63.7625 49.5292 49.5375 63.7183 32 63.7183C14.45 63.7183 0.237496 49.5167 0.237496 32.008C0.224996 14.4868 14.45 0.285156 31.9875 0.285156Z" fill="#8247E5"/>
<mask id="mask0_3160_11374" style="mask-type:luminance" maskUnits="userSpaceOnUse" x="10" y="14" width="43" height="37">
<path d="M52.5879 14H10.9504V50.4276H52.5879V14Z" fill="white"/>
</mask>
<g mask="url(#mask0_3160_11374)">
<path d="M42.4004 25.0925C41.6379 24.6557 40.6629 24.6557 39.8004 25.0925L33.7254 28.6866L29.6004 30.9703L23.6379 34.5519C22.8754 34.9887 21.9004 34.9887 21.0379 34.5519L16.3754 31.7191C15.6129 31.2823 15.0754 30.4088 15.0754 29.4354V23.9943C15.0754 23.1207 15.5129 22.2597 16.3754 21.7106L21.0379 18.99C21.8004 18.5533 22.7754 18.5533 23.6379 18.99L28.3004 21.8229C29.0629 22.2597 29.6004 23.1332 29.6004 24.1066V27.7007L33.7254 25.3047V21.6107C33.7254 20.7372 33.2879 19.8761 32.4254 19.327L23.7504 14.2104C22.9879 13.7736 22.0129 13.7736 21.1504 14.2104L12.2629 19.4393C11.4004 19.8761 10.9629 20.7496 10.9629 21.6107V31.8314C10.9629 32.705 11.4004 33.5661 12.2629 34.1152L21.0504 39.2317C21.8129 39.6685 22.7879 39.6685 23.6504 39.2317L29.6129 35.75L33.7379 33.3539L39.7004 29.8721C40.4629 29.4354 41.4379 29.4354 42.3004 29.8721L46.9629 32.5927C47.7254 33.0294 48.2629 33.903 48.2629 34.8764V40.3175C48.2629 41.191 47.8254 42.0521 46.9629 42.6012L42.4129 45.3217C41.6504 45.7585 40.6754 45.7585 39.8129 45.3217L35.1379 42.6012C34.3754 42.1644 33.8379 41.2909 33.8379 40.3175V36.8357L29.7129 39.2317V42.8258C29.7129 43.6994 30.1504 44.5605 31.0129 45.1096L39.8004 50.2262C40.5629 50.6629 41.5379 50.6629 42.4004 50.2262L51.1879 45.1096C51.9504 44.6728 52.4879 43.7992 52.4879 42.8258V32.4928C52.4879 31.6193 52.0504 30.7582 51.1879 30.2091L42.4004 25.0925Z" fill="white"/>
</g>
</svg>
