<svg width="56" height="52" viewBox="0 0 56 52" fill="none" xmlns="http://www.w3.org/2000/svg">
<rect x="4" width="48" height="48" rx="24" fill="#FFEDD2"/>
<rect x="4" width="48" height="48" rx="24" stroke="#FFFCF8" stroke-width="8"/>
<path d="M17 16.0015V22.0015M17 22.0015H23M17 22.0015L21.64 17.6415C22.7147 16.5663 24.0444 15.7807 25.5048 15.3583C26.9652 14.9359 28.5089 14.8903 29.9917 15.2258C31.4745 15.5613 32.8482 16.267 33.9845 17.277C35.1209 18.2869 35.9828 19.5683 36.49 21.0015M39 32.0015V26.0015M39 26.0015H33M39 26.0015L34.36 30.3615C33.2853 31.4368 31.9556 32.2223 30.4952 32.6448C29.0348 33.0672 27.4911 33.1128 26.0083 32.7773C24.5255 32.4418 23.1518 31.7361 22.0155 30.7261C20.8791 29.7161 20.0172 28.4348 19.51 27.0015" stroke="#EC8000" stroke-width="2" stroke-linecap="round" stroke-linejoin="round"/>
</svg>
