<svg width="71" height="71" viewBox="0 0 71 71" fill="none" xmlns="http://www.w3.org/2000/svg">
<path d="M60.325 42.1953H58.8256C58.1438 37.4521 54.0544 33.7953 49.125 33.7953C47.599 33.7953 46.1094 34.1523 44.764 34.8243C44.0346 30.8399 40.886 27.6913 36.903 26.9577C37.239 25.8741 37.7976 24.8703 38.5494 23.9953H42.125C52.1602 23.9953 60.325 15.8305 60.325 5.79531V1.59531C60.325 0.822513 59.6978 0.195312 58.925 0.195312H54.725C44.6898 0.195312 36.525 8.36011 36.525 18.3953V22.0647C35.3014 23.4521 34.4558 25.0901 34.0372 26.8625C32.6106 27.0207 31.275 27.4841 30.099 28.1897L28.125 26.2157V19.7953C28.125 12.8485 22.4718 7.19531 15.525 7.19531H8.525C7.7522 7.19531 7.125 7.82251 7.125 8.59531V15.5953C7.125 22.5421 12.7782 28.1953 19.725 28.1953H26.1454L27.9206 29.9705C26.6942 31.3033 25.8248 32.9707 25.4846 34.8243C24.1406 34.1523 22.651 33.7953 21.125 33.7953C16.1564 33.7953 12.0404 37.5123 11.409 42.3115C10.9162 42.2345 10.4206 42.1953 9.925 42.1953C4.521 42.1953 0.125 46.5913 0.125 51.9953C0.125 57.3993 4.521 61.7953 9.925 61.7953C10.4206 61.7953 10.9162 61.7561 11.409 61.6791C12.0404 66.4783 16.1564 70.1953 21.125 70.1953C25.0632 70.1953 28.566 67.7915 30.0962 64.3083C31.534 65.3891 33.2952 65.9953 35.125 65.9953C36.9548 65.9953 38.716 65.3891 40.1538 64.3083C41.684 67.7915 45.1868 70.1953 49.125 70.1953C54.0544 70.1953 58.1438 66.5385 58.8256 61.7953H60.325C65.729 61.7953 70.125 57.3993 70.125 51.9953C70.125 46.5913 65.729 42.1953 60.325 42.1953ZM54.725 2.99531H57.525V5.79531C57.525 14.2863 50.616 21.1953 42.125 21.1953H41.3046L52.9148 9.58511C53.4622 9.03771 53.4622 8.15291 52.9148 7.60551C52.3674 7.05811 51.4826 7.05811 50.9352 7.60551L39.325 19.2157V18.3953C39.325 9.90431 46.234 2.99531 54.725 2.99531ZM33.725 29.7367V31.8157L32.178 30.2687C32.6694 30.0391 33.1804 29.8473 33.725 29.7367ZM19.725 25.3953C14.321 25.3953 9.925 20.9993 9.925 15.5953V9.99531H15.525C20.929 9.99531 25.325 14.3913 25.325 19.7953V23.4157L15.2898 13.3805C14.7424 12.8331 13.8576 12.8331 13.3102 13.3805C12.7628 13.9279 12.7628 14.8127 13.3102 15.3601L23.3454 25.3953H19.725ZM60.325 58.9953H57.525C56.7522 58.9953 56.125 59.6225 56.125 60.3953C56.125 64.2551 52.9848 67.3953 49.125 67.3953C45.6866 67.3953 42.7144 64.8305 42.2118 61.4285C42.1278 60.8629 41.7092 60.4051 41.1534 60.2721C41.0442 60.2455 40.935 60.2343 40.8272 60.2343C40.3806 60.2343 39.9522 60.4485 39.6862 60.8237C38.6306 62.3091 36.9268 63.1953 35.125 63.1953C33.3232 63.1953 31.6194 62.3091 30.5652 60.8237C30.2348 60.3575 29.6566 60.1377 29.098 60.2721C28.5422 60.4051 28.1236 60.8629 28.0396 61.4285C27.5356 64.8305 24.5634 67.3953 21.125 67.3953C17.2652 67.3953 14.125 64.2551 14.125 60.3953C14.125 60.3001 14.132 60.2077 14.1474 59.9851C14.1768 59.5147 13.9682 59.0611 13.5916 58.7797C13.2136 58.4969 12.7222 58.4199 12.2784 58.5809C11.5084 58.8553 10.716 58.9953 9.925 58.9953C6.0652 58.9953 2.925 55.8551 2.925 51.9953C2.925 48.1355 6.0652 44.9953 9.925 44.9953C10.716 44.9953 11.5084 45.1353 12.2784 45.4111C12.7222 45.5707 13.2136 45.4349 13.5916 45.1493C13.9696 44.8637 14.1726 44.3485 14.139 43.8767C14.132 43.7829 14.125 43.6905 14.125 43.5953C14.125 39.7355 17.2652 36.5953 21.125 36.5953C22.8596 36.5953 24.5284 37.2435 25.8234 38.4195C26.2518 38.8073 26.8734 38.8927 27.39 38.6365C27.9066 38.3789 28.2118 37.8301 28.1586 37.2547C28.139 37.0363 28.125 36.8179 28.125 36.5953C28.125 34.8131 28.8152 33.2031 29.9156 31.9655L32.4958 34.5457C33.277 35.3269 33.725 36.4091 33.725 37.5151V37.9953V38.2529C32.0996 38.8325 30.925 40.3725 30.925 42.1953C30.925 42.9681 31.5522 43.5953 32.325 43.5953C33.0978 43.5953 33.725 42.9681 33.725 42.1953C33.725 41.4239 34.3536 40.7953 35.125 40.7953C35.8964 40.7953 36.525 41.4239 36.525 42.1953C36.525 42.9681 37.1522 43.5953 37.925 43.5953C38.6978 43.5953 39.325 42.9681 39.325 42.1953C39.325 40.3725 38.1504 38.8325 36.525 38.2529V37.9953V37.5151V29.7367C39.7156 30.3877 42.125 33.2143 42.125 36.5953C42.125 36.8179 42.111 37.0377 42.0914 37.2547C42.0382 37.8301 42.3434 38.3775 42.86 38.6365C43.3766 38.8941 43.9982 38.8087 44.4266 38.4195C45.7216 37.2435 47.3904 36.5953 49.125 36.5953C52.9848 36.5953 56.125 39.7355 56.125 43.5953C56.125 44.3681 56.7522 44.9953 57.525 44.9953H60.325C64.1848 44.9953 67.325 48.1355 67.325 51.9953C67.325 55.8551 64.1848 58.9953 60.325 58.9953Z" fill="#EC8000"/>
<path d="M23.9258 47.7969C23.153 47.7969 22.5258 48.4241 22.5258 49.1969C22.5258 49.9683 21.8972 50.5969 21.1258 50.5969C20.3544 50.5969 19.7258 49.9683 19.7258 49.1969C19.7258 48.4241 19.0986 47.7969 18.3258 47.7969C17.553 47.7969 16.9258 48.4241 16.9258 49.1969C16.9258 51.5125 18.8102 53.3969 21.1258 53.3969C23.4414 53.3969 25.3258 51.5125 25.3258 49.1969C25.3258 48.4241 24.6986 47.7969 23.9258 47.7969Z" fill="#EC8000"/>
<path d="M37.9258 51.9961C37.153 51.9961 36.5258 52.6233 36.5258 53.3961C36.5258 54.1675 35.8972 54.7961 35.1258 54.7961C34.3544 54.7961 33.7258 54.1675 33.7258 53.3961C33.7258 52.6233 33.0986 51.9961 32.3258 51.9961C31.553 51.9961 30.9258 52.6233 30.9258 53.3961C30.9258 55.7117 32.8102 57.5961 35.1258 57.5961C37.4414 57.5961 39.3258 55.7117 39.3258 53.3961C39.3258 52.6233 38.6986 51.9961 37.9258 51.9961Z" fill="#EC8000"/>
<path d="M51.9258 43.5938C51.153 43.5938 50.5258 44.221 50.5258 44.9937C50.5258 45.7652 49.8972 46.3937 49.1258 46.3937C48.3544 46.3937 47.7258 45.7652 47.7258 44.9937C47.7258 44.221 47.0986 43.5938 46.3258 43.5938C45.553 43.5938 44.9258 44.221 44.9258 44.9937C44.9258 47.3094 46.8102 49.1937 49.1258 49.1937C51.4414 49.1937 53.3258 47.3094 53.3258 44.9937C53.3258 44.221 52.6986 43.5938 51.9258 43.5938Z" fill="#EC8000"/>
<path d="M20.1306 58.0018C19.8786 58.2678 19.7246 58.6318 19.7246 58.9958C19.7246 59.3598 19.8786 59.7238 20.1306 59.9898C20.3966 60.2418 20.7606 60.3958 21.1246 60.3958C21.4886 60.3958 21.8526 60.2418 22.1186 59.9898C22.3706 59.7238 22.5246 59.3598 22.5246 58.9958C22.5246 58.6318 22.3706 58.2678 22.1186 58.0018C21.6006 57.4838 20.6486 57.4838 20.1306 58.0018Z" fill="#EC8000"/>
<path d="M57.9314 51.0018C57.6794 51.2678 57.5254 51.6318 57.5254 51.9958C57.5254 52.1778 57.5674 52.3598 57.6374 52.5278C57.7074 52.7098 57.8054 52.8498 57.9314 52.9898C58.1974 53.2418 58.5614 53.3958 58.9254 53.3958C59.0234 53.3958 59.1074 53.3818 59.2054 53.3678C59.2894 53.3538 59.3734 53.3258 59.4574 53.2838C59.5414 53.2558 59.6254 53.2138 59.7094 53.1578C59.7794 53.1158 59.8494 53.0458 59.9194 52.9898C60.0454 52.8498 60.1434 52.7098 60.2134 52.5278C60.2834 52.3598 60.3254 52.1778 60.3254 51.9958C60.3254 51.6318 60.1714 51.2678 59.9194 51.0018C59.4014 50.4838 58.4494 50.4838 57.9314 51.0018Z" fill="#EC8000"/>
<path d="M60.3522 38.2738C60.3662 38.3578 60.3942 38.4418 60.4362 38.5258C60.4642 38.6098 60.5062 38.6938 60.5622 38.7778C60.6182 38.8478 60.6742 38.9177 60.7302 38.9877C60.8702 39.1137 61.0242 39.2117 61.1922 39.2817C61.3602 39.3517 61.5422 39.3937 61.7242 39.3937C61.8222 39.3937 61.9062 39.3797 62.0042 39.3657C62.0882 39.3517 62.1722 39.3237 62.2562 39.2817C62.3402 39.2537 62.4242 39.2118 62.5082 39.1558C62.5782 39.0998 62.6482 39.0437 62.7182 38.9877C62.7742 38.9177 62.8302 38.8478 62.8862 38.7778C62.9422 38.6938 62.9842 38.6098 63.0122 38.5258C63.0542 38.4418 63.0822 38.3578 63.0962 38.2738C63.1102 38.1758 63.1242 38.0917 63.1242 37.9937C63.1242 37.8117 63.0822 37.6297 63.0122 37.4617C62.9422 37.2937 62.8442 37.1398 62.7182 36.9998C62.6482 36.9438 62.5782 36.8877 62.5082 36.8317C62.4242 36.7757 62.3402 36.7338 62.2562 36.7058C62.1722 36.6638 62.0882 36.6357 62.0042 36.6217C61.7242 36.5657 61.4442 36.5938 61.1922 36.7058C61.0242 36.7758 60.8702 36.8738 60.7302 36.9998C60.6042 37.1398 60.5062 37.2937 60.4362 37.4617C60.3662 37.6297 60.3242 37.8117 60.3242 37.9937C60.3242 38.0917 60.3382 38.1758 60.3522 38.2738Z" fill="#EC8000"/>
<path d="M58.687 33.0114C58.645 32.9414 58.575 32.8714 58.519 32.8014C58.127 32.4234 57.511 32.2974 56.993 32.5074C56.825 32.5774 56.671 32.6754 56.531 32.8014C56.279 33.0674 56.125 33.4314 56.125 33.7954C56.125 33.9774 56.167 34.1594 56.237 34.3274C56.307 34.5094 56.405 34.6494 56.531 34.7894C56.671 34.9154 56.825 35.0134 56.993 35.0834C57.161 35.1534 57.343 35.1954 57.525 35.1954C57.889 35.1954 58.253 35.0414 58.519 34.7894C58.771 34.5234 58.925 34.1594 58.925 33.7954C58.925 33.6974 58.911 33.6134 58.897 33.5154C58.883 33.4314 58.855 33.3474 58.813 33.2634C58.785 33.1794 58.743 33.0954 58.687 33.0114Z" fill="#EC8000"/>
<path d="M9.519 38.9901C9.771 38.7241 9.925 38.3601 9.925 37.9961C9.925 37.8141 9.883 37.6321 9.813 37.4641C9.743 37.2961 9.645 37.1421 9.519 37.0021C9.127 36.6101 8.511 36.4841 7.993 36.7081C7.825 36.7781 7.671 36.8761 7.531 37.0021C7.405 37.1421 7.307 37.2961 7.237 37.4641C7.167 37.6321 7.125 37.8141 7.125 37.9961C7.125 38.3601 7.279 38.7241 7.531 38.9901C7.797 39.2421 8.161 39.3961 8.525 39.3961C8.889 39.3961 9.253 39.2421 9.519 38.9901Z" fill="#EC8000"/>
<path d="M12.7242 35.1958C12.8222 35.1958 12.9062 35.1818 13.0042 35.1678C13.0882 35.1538 13.1722 35.1258 13.2562 35.0838C13.3402 35.0558 13.4242 35.0138 13.5082 34.9578C13.5782 34.9018 13.6482 34.8458 13.7182 34.7898C13.9702 34.5238 14.1242 34.1598 14.1242 33.7958C14.1242 33.4318 13.9702 33.0678 13.7182 32.8018C13.6482 32.7458 13.5782 32.6898 13.5082 32.6338C13.4242 32.5778 13.3402 32.5358 13.2562 32.5078C13.1722 32.4658 13.0882 32.4378 13.0042 32.4238C12.5422 32.3258 12.0522 32.4798 11.7302 32.8018C11.6042 32.9418 11.5062 33.0818 11.4362 33.2638C11.3662 33.4318 11.3242 33.6138 11.3242 33.7958C11.3242 34.1598 11.4782 34.5238 11.7302 34.7898C11.9962 35.0418 12.3602 35.1958 12.7242 35.1958Z" fill="#EC8000"/>
</svg>
