<svg width="44" height="38" viewBox="0 0 44 38" fill="none" xmlns="http://www.w3.org/2000/svg">
<g clip-path="url(#clip0_3160_17717)">
<path d="M40.7525 10.3552C40.7225 10.2877 40.685 10.2277 40.64 10.1752L36.7325 5.75766C36.6875 5.70516 36.635 5.66766 36.5825 5.63016L29.3675 1.27266C29.2925 1.22766 29.2025 1.19766 29.1125 1.18266L20.45 0.155156C20.36 0.147656 20.27 0.155156 20.1875 0.177656L11.8625 2.75016C11.78 2.78016 11.6975 2.81766 11.63 2.87766L5.11248 8.49516C5.04498 8.55516 4.99248 8.62266 4.95498 8.70516L1.13748 16.5652C1.09998 16.6477 1.07748 16.7377 1.06998 16.8277L0.79248 25.5652C0.79248 25.6627 0.80748 25.7602 0.84498 25.8502L3.16248 31.0102C3.21498 31.1227 3.28998 31.2127 3.38748 31.2802L8.86998 34.9627C8.92248 35.0002 8.98248 35.0302 9.04998 35.0452L16.7075 37.3027C16.7525 37.3177 16.805 37.3252 16.85 37.3252L25.625 37.8352C25.625 37.8352 25.6475 37.8352 25.6625 37.8352C25.715 37.8352 25.7675 37.8352 25.82 37.8127L34.0325 35.7502C34.0925 35.7352 34.145 35.7127 34.1975 35.6827L40.2725 32.1727C40.355 32.1277 40.4225 32.0602 40.4825 31.9852L43.58 27.5152C43.6475 27.4177 43.6925 27.2977 43.6925 27.1702L43.9925 18.4327C43.9925 18.3427 43.9775 18.2527 43.9475 18.1702L40.745 10.3552H40.7525ZM39.74 30.8002L37.5275 27.3352L41.57 24.0127L39.9725 30.4627L39.7325 30.8077L39.74 30.8002ZM25.61 36.5452H25.52L21.83 31.3327L29.3675 30.6427L25.79 36.5002L25.6025 36.5452H25.61ZM17.0075 36.0427L16.805 35.9827L13.385 29.8552L20.8925 31.2877L17.075 36.0427H17.0075ZM3.69498 29.0377L2.56998 23.0527L5.73498 26.6452L4.00998 29.7502L3.69498 29.0452V29.0377ZM6.05748 9.38766L7.03248 8.54766L8.71998 7.73016L4.76748 12.7327L5.20998 11.1277L6.04998 9.39516L6.05748 9.38766ZM12.3725 3.95016L14.4425 3.31266L15.9425 3.11016L10.445 6.24516L11.4425 4.76016L12.3725 3.95766V3.95016ZM23.855 10.2652L30.995 13.4977L24.875 17.2702L23.855 10.2652ZM24.365 17.3152L17.075 14.7652L23.3375 10.2952L24.365 17.3152ZM16.7375 14.3677L16.1675 7.94016L22.955 9.93516L16.7375 14.3677ZM24.1775 17.7952L18.3425 22.8202L16.865 15.2302L24.1775 17.7952ZM31.31 13.9102L31.6325 21.5827L25.1825 17.6902L31.31 13.9102ZM24.1025 9.80766L29.4575 6.71016L31.16 12.9952L24.1025 9.80766ZM23.72 9.43266L22.745 4.94766L28.9325 6.42516L23.72 9.43266ZM23.2025 9.46266L16.625 7.52766L22.2275 4.97016L23.2025 9.46266ZM16.2425 14.5027L9.92748 13.0477L15.6725 8.10516L16.2425 14.5102V14.5027ZM16.0325 14.9827L10.7075 20.4877L9.68748 13.5202L16.0325 14.9827ZM10.2125 20.6527L5.82498 19.0777L9.22998 13.8877L10.22 20.6527H10.2125ZM16.3775 15.3652L17.855 22.9252L11.015 20.9152L16.385 15.3652H16.3775ZM24.485 18.2077L25.1 24.7327L18.7325 23.1577L24.485 18.2077ZM25.0025 18.1702L31.3775 22.0102L25.6175 24.6802L25.0025 18.1627V18.1702ZM31.8425 14.0002L37.5425 18.5002L32.165 21.6127L31.8425 14.0077V14.0002ZM30.05 6.86766L36.335 10.6552L31.73 13.0702L30.05 6.86766ZM22.985 4.46766L25.7075 2.25516L28.9025 5.87766L22.985 4.46766ZM16.2875 7.11516L17.4125 3.00516L21.74 4.62516L16.2875 7.11516ZM9.66498 12.5977L9.88248 7.28016L15.2675 7.77516L9.66498 12.5977ZM5.54748 18.5602L4.51998 14.0977L8.86248 13.5052L5.54748 18.5527V18.5602ZM10.1075 21.1552L6.26748 25.9327L5.71998 19.5802L10.1075 21.1552ZM17.7425 23.4277L13.0325 28.9552L10.9175 21.4177L17.75 23.4277H17.7425ZM24.98 25.2352L21.44 30.5602L18.6275 23.6602L24.9875 25.2352H24.98ZM31.55 22.5052L29.75 29.7877L25.82 25.1677L31.5575 22.5052H31.55ZM37.7075 19.0027L37.01 26.7052L32.3525 22.0927L37.7075 18.9952V19.0027ZM32.0375 13.4902L36.6575 11.0677L37.6625 17.9302L32.045 13.4977L32.0375 13.4902ZM30.23 6.37266L33.455 5.21766L34.055 5.57766L36.2375 9.98766L30.23 6.36516V6.37266ZM32.885 4.88016L29.7125 6.01266L26.585 2.46516L32.09 4.40016L32.885 4.88016ZM28.85 2.44266L29.9375 3.09516L27.6725 2.30016L28.8575 2.44266H28.85ZM22.3775 4.30266L18.4025 2.81766L24.9275 2.23266L22.3775 4.30266ZM15.71 7.29516L10.4825 6.81516L16.835 3.19266L15.71 7.29516ZM9.13998 12.9502L4.80498 13.5427L9.34998 7.78266L9.13998 12.9502ZM5.14998 19.1152L2.61498 21.4177L4.19748 14.9977L5.14998 19.1227V19.1152ZM5.22498 19.7452L5.74998 25.8427L2.53248 22.1902L5.22498 19.7452ZM10.43 21.5902L12.5225 29.0452L6.48498 26.4952L10.4225 21.5902H10.43ZM18.125 23.7802L20.975 30.7702L13.4 29.3227L18.1175 23.7802H18.125ZM25.43 25.4977L29.3675 30.1252L21.905 30.8077L25.43 25.5052V25.4977ZM32.075 22.5427L36.7625 27.1852L30.2525 29.9002L32.075 22.5427ZM38.21 19.1677L41.6675 23.2777L37.5275 26.6827L38.21 19.1677ZM37.25 11.5402L40.8725 15.8977L38.195 18.0502L37.2425 11.5402H37.25ZM37.4 10.9177L39.56 10.8652L39.62 10.9402L40.3175 12.6427L40.7825 14.9977L37.3925 10.9252L37.4 10.9177ZM39.1175 10.3627L37.0175 10.4152L34.8725 6.08766L35.1275 6.23766L37.07 8.04516L39.1175 10.3627ZM20.435 1.45266L23.6375 1.83516L18.3275 2.31516L19.055 1.88016L20.4275 1.45266H20.435ZM9.43998 6.80016L8.55498 7.22766L9.97248 6.00516L9.43998 6.79266V6.80016ZM3.94998 13.7602L3.89748 13.8202L3.97248 13.6627L3.94248 13.7602H3.94998ZM3.66498 14.9077L2.26998 20.5702L2.24748 20.3077L2.35248 17.0077L2.95998 15.7552L3.66498 14.9152V14.9077ZM2.78748 27.0202L2.08248 25.4452L2.14248 23.5852L2.78748 27.0127V27.0202ZM6.00498 27.2002L8.41248 33.0952L4.27248 30.3202L6.00498 27.2002ZM6.51498 27.0877L12.4775 29.6077L9.39498 33.7627L9.16998 33.6127L6.50748 27.0877H6.51498ZM12.8525 29.9677L16.085 35.7727L9.89748 33.9502L12.845 29.9677H12.8525ZM21.3425 31.5427L24.8525 36.5002L17.6975 36.0802L21.3425 31.5427ZM29.885 30.7777L33.14 34.6477L26.5025 36.3127L29.885 30.7777ZM33.68 34.4977L30.275 30.4402L36.7025 27.7552L33.92 34.3552L33.68 34.4902V34.4977ZM37.235 27.8302L39.3875 31.1977L34.6625 33.9277L37.235 27.8302ZM42.02 24.3352L42.455 25.9177L42.4175 26.9302L40.805 29.2627L42.02 24.3352ZM38.3525 18.5677L41.0075 16.4302L41.66 22.4977L38.3525 18.5677ZM41.4575 15.8227L41.3225 15.1252L41.735 16.1452L41.4575 15.8227ZM42.2825 23.3152L42.59 22.2052L42.5225 24.1852L42.2825 23.3152ZM42.125 21.9427L41.5625 16.7302L42.35 17.6377L42.7175 18.5302L42.665 19.9852L42.125 21.9427Z" fill="black"/>
</g>
<defs>
<clipPath id="clip0_3160_17717">
<rect width="43.2075" height="37.6875" fill="white" transform="translate(0.79248 0.15625)"/>
</clipPath>
</defs>
</svg>
