<svg width="80" height="80" viewBox="0 0 80 80" fill="none" xmlns="http://www.w3.org/2000/svg">
<path d="M7.17987 15.9202C5 20.1984 5 25.799 5 37V43C5 54.201 5 59.8016 7.17987 64.0798C9.09734 67.8431 12.1569 70.9027 15.9202 72.8201C20.1984 75 25.799 75 37 75H43C54.201 75 59.8016 75 64.0798 72.8201C67.8431 70.9027 70.9027 67.8431 72.8201 64.0798C75 59.8016 75 54.201 75 43V37C75 25.799 75 20.1984 72.8201 15.9202C70.9027 12.1569 67.8431 9.09734 64.0798 7.17987C59.8016 5 54.201 5 43 5H37C25.799 5 20.1984 5 15.9202 7.17987C12.1569 9.09734 9.09734 12.1569 7.17987 15.9202Z" fill="url(#paint0_linear_3160_9965)"/>
<path d="M5.66306 20.6976C5 24.4658 5 29.4657 5 36.9987V42.9987C5 54.1997 5 59.8002 7.17987 64.0785C9.09734 67.8417 12.1569 70.9013 15.9202 72.8188C20.1984 74.9987 25.799 74.9987 37 74.9987H43C54.201 74.9987 59.8016 74.9987 64.0798 72.8188C67.8431 70.9013 70.9027 67.8417 72.8201 64.0785C75 59.8002 75 54.1997 75 42.9987V36.9987C75 25.7976 75 20.1971 72.8201 15.9189C70.9694 12.2866 68.0546 9.30977 64.47 7.38281L5.66306 20.6976Z" fill="url(#paint1_linear_3160_9965)"/>
<path d="M74.2758 59.6367C73.9544 61.3261 73.4903 62.7662 72.8202 64.0814C70.9027 67.8446 67.8431 70.9042 64.0798 72.8217C59.9296 74.9363 54.5351 74.9996 43.9907 75.0015H40.1465V67.0936L74.2758 59.6367Z" fill="url(#paint2_linear_3160_9965)"/>
<path d="M43.0004 5H37.0004C34.8213 5 32.8541 5 31.0674 5.01605V14.9263L64.4639 7.38063C64.3369 7.31239 64.209 7.24546 64.0802 7.17987C61.7052 5.96971 58.9226 5.43137 55.0004 5.19189C51.8576 5 47.9832 5 43.0004 5Z" fill="url(#paint3_linear_3160_9965)"/>
<path d="M75.0004 43.432C75.0001 50.946 74.9868 55.8989 74.2762 59.6337L62.4062 62.2271V44.5382L75.0004 41.6094V43.432Z" fill="url(#paint4_linear_3160_9965)"/>
<path fill-rule="evenodd" clip-rule="evenodd" d="M37.3525 33.4457C37.3525 31.839 38.6661 31.2211 40.8418 31.2211C43.9616 31.2211 47.9025 32.1686 51.0223 33.8577V24.1763C47.6151 22.8168 44.249 22.2812 40.8418 22.2812C32.5086 22.2812 26.9668 26.6482 26.9668 33.9401C26.9668 45.3105 42.5659 43.4979 42.5659 48.4003C42.5659 50.2954 40.9239 50.9134 38.6251 50.9134C35.2179 50.9134 30.8666 49.5127 27.4183 47.6176V57.4225C31.236 59.0704 35.0948 59.7708 38.6251 59.7708C47.1635 59.7708 53.0337 55.5275 53.0337 48.1531C52.9927 35.8764 37.3525 38.0598 37.3525 33.4457Z" fill="white"/>
<defs>
<linearGradient id="paint0_linear_3160_9965" x1="5" y1="5" x2="27.9916" y2="21.2552" gradientUnits="userSpaceOnUse">
<stop stop-color="#392993"/>
<stop offset="1" stop-color="#4B47B9"/>
</linearGradient>
<linearGradient id="paint1_linear_3160_9965" x1="7.63599" y1="21.4348" x2="58.3916" y2="63.3011" gradientUnits="userSpaceOnUse">
<stop stop-color="#594BB9"/>
<stop offset="1" stop-color="#60A8F2"/>
</linearGradient>
<linearGradient id="paint2_linear_3160_9965" x1="40.1465" y1="67.3866" x2="75" y2="75.0017" gradientUnits="userSpaceOnUse">
<stop stop-color="#61A2EF"/>
<stop offset="1" stop-color="#58E6FD"/>
</linearGradient>
<linearGradient id="paint3_linear_3160_9965" x1="31.0674" y1="9.97908" x2="75.0004" y2="5" gradientUnits="userSpaceOnUse">
<stop stop-color="#534EBE"/>
<stop offset="1" stop-color="#6875E2"/>
</linearGradient>
<linearGradient id="paint4_linear_3160_9965" x1="62.4063" y1="44.6847" x2="75.0004" y2="59.7684" gradientUnits="userSpaceOnUse">
<stop stop-color="#71A5F3"/>
<stop offset="1" stop-color="#6CC3FA"/>
</linearGradient>
</defs>
</svg>
