<svg width="25" height="25" viewBox="0 0 25 25" fill="none" xmlns="http://www.w3.org/2000/svg">
<path fill-rule="evenodd" clip-rule="evenodd" d="M24.0322 12.1953C24.0322 18.8227 18.6596 24.1953 12.0322 24.1953C5.40481 24.1953 0.0322266 18.8227 0.0322266 12.1953C0.0322266 5.5679 5.40481 0.195312 12.0322 0.195312C18.6596 0.195312 24.0322 5.5679 24.0322 12.1953ZM12.4623 9.05424C11.2951 9.53971 8.96236 10.5445 5.46412 12.0686C4.89606 12.2945 4.59848 12.5155 4.57139 12.7316C4.52561 13.0968 4.98294 13.2406 5.6057 13.4364C5.69041 13.4631 5.77818 13.4907 5.86816 13.5199C6.48086 13.7191 7.30505 13.9521 7.73351 13.9613C8.12217 13.9697 8.55595 13.8095 9.03487 13.4807C12.3034 11.2743 13.9906 10.1591 14.0965 10.1351C14.1713 10.1181 14.2748 10.0968 14.345 10.1592C14.4152 10.2215 14.4083 10.3396 14.4008 10.3713C14.3555 10.5645 12.5603 12.2334 11.6313 13.0971C11.3417 13.3663 11.1363 13.5573 11.0943 13.6009C11.0002 13.6987 10.9044 13.7911 10.8122 13.8799C10.243 14.4286 9.81614 14.8401 10.8358 15.5121C11.3259 15.835 11.718 16.102 12.1092 16.3684C12.5364 16.6594 12.9625 16.9496 13.5138 17.311C13.6543 17.403 13.7884 17.4987 13.9191 17.5918C14.4163 17.9463 14.863 18.2647 15.4148 18.2139C15.7355 18.1844 16.0667 17.8829 16.2349 16.9837C16.6324 14.8585 17.4139 10.2538 17.5944 8.35629C17.6103 8.19004 17.5904 7.97728 17.5744 7.88389C17.5584 7.79049 17.525 7.65742 17.4036 7.55891C17.2598 7.44225 17.0379 7.41765 16.9386 7.4194C16.4872 7.42735 15.7948 7.66813 12.4623 9.05424Z" fill="#98A2B3"/>
</svg>
