<svg width="56" height="57" viewBox="0 0 56 57" fill="none" xmlns="http://www.w3.org/2000/svg">
<rect x="4" y="4.5" width="48" height="48" rx="24" fill="#D1FADF"/>
<rect x="4" y="4.5" width="48" height="48" rx="24" stroke="#ECFDF3" stroke-width="8"/>
<g clip-path="url(#clip0_3160_18001)">
<mask id="path-2-inside-1_3160_18001" fill="white">
<path d="M17.7208 27.232H17.8912V23.7991C17.8912 22.8809 18.6448 22.1339 19.5712 22.1339H20.884L21.5704 19.6407C21.6808 19.241 21.9424 18.908 22.3048 18.7034C22.6672 18.4988 23.0896 18.4465 23.4928 18.5559L36.6592 22.1339H38.3128C39.244 22.1339 40 22.8809 40 23.7991V36.8359C40 37.7542 39.244 38.5012 38.3128 38.5012H19.5712C18.6448 38.5012 17.8912 37.7542 17.8912 36.8359V33.4007H17.7208C16.7728 33.4007 16 32.6346 16 31.6949V28.9353C16 27.9956 16.7728 27.232 17.7208 27.232ZM23.2888 19.291C23.0824 19.2363 22.8688 19.2624 22.6864 19.3671C22.5016 19.4718 22.3696 19.6407 22.3144 19.8429L21.6832 22.1339H33.7552L23.2888 19.291ZM18.6592 36.8359C18.6592 37.3331 19.0672 37.7399 19.5712 37.7399H38.3128C38.8192 37.7399 39.232 37.3355 39.232 36.8359V23.7991C39.232 23.3019 38.8192 22.8951 38.3128 22.8951H19.5712C19.0696 22.8951 18.6592 23.2996 18.6592 23.7991V27.232H22.7944C24.5104 27.232 25.9072 28.6166 25.9072 30.3175C25.9072 32.0185 24.5104 33.403 22.7944 33.403H18.6592V36.8359ZM16.768 31.6973C16.768 32.2183 17.1952 32.6394 17.7184 32.6394H22.7944C24.0856 32.6394 25.1368 31.5974 25.1368 30.3175C25.1368 29.0376 24.0856 27.9956 22.7944 27.9956H17.7184C17.1928 27.9956 16.768 28.4191 16.768 28.9377V31.6973Z"/>
</mask>
<path d="M17.7208 27.232H17.8912V23.7991C17.8912 22.8809 18.6448 22.1339 19.5712 22.1339H20.884L21.5704 19.6407C21.6808 19.241 21.9424 18.908 22.3048 18.7034C22.6672 18.4988 23.0896 18.4465 23.4928 18.5559L36.6592 22.1339H38.3128C39.244 22.1339 40 22.8809 40 23.7991V36.8359C40 37.7542 39.244 38.5012 38.3128 38.5012H19.5712C18.6448 38.5012 17.8912 37.7542 17.8912 36.8359V33.4007H17.7208C16.7728 33.4007 16 32.6346 16 31.6949V28.9353C16 27.9956 16.7728 27.232 17.7208 27.232ZM23.2888 19.291C23.0824 19.2363 22.8688 19.2624 22.6864 19.3671C22.5016 19.4718 22.3696 19.6407 22.3144 19.8429L21.6832 22.1339H33.7552L23.2888 19.291ZM18.6592 36.8359C18.6592 37.3331 19.0672 37.7399 19.5712 37.7399H38.3128C38.8192 37.7399 39.232 37.3355 39.232 36.8359V23.7991C39.232 23.3019 38.8192 22.8951 38.3128 22.8951H19.5712C19.0696 22.8951 18.6592 23.2996 18.6592 23.7991V27.232H22.7944C24.5104 27.232 25.9072 28.6166 25.9072 30.3175C25.9072 32.0185 24.5104 33.403 22.7944 33.403H18.6592V36.8359ZM16.768 31.6973C16.768 32.2183 17.1952 32.6394 17.7184 32.6394H22.7944C24.0856 32.6394 25.1368 31.5974 25.1368 30.3175C25.1368 29.0376 24.0856 27.9956 22.7944 27.9956H17.7184C17.1928 27.9956 16.768 28.4191 16.768 28.9377V31.6973Z" fill="#039855"/>
<path d="M17.8912 27.232H27.8912V37.232H17.8912V27.232ZM20.884 22.1339L30.5253 24.7882L28.5029 32.1339H20.884V22.1339ZM21.5704 19.6407L11.9291 16.9863L11.9314 16.9781L21.5704 19.6407ZM23.4928 18.5559L26.1121 8.90504L26.1152 8.90587L23.4928 18.5559ZM36.6592 22.1339V32.1339H35.3246L34.0368 31.7839L36.6592 22.1339ZM17.8912 33.4007V23.4007H27.8912V33.4007H17.8912ZM23.2888 19.291L25.8513 9.62488L25.8807 9.63268L25.91 9.64065L23.2888 19.291ZM22.6864 19.3671L27.6638 28.0404L27.6394 28.0544L27.6149 28.0683L22.6864 19.3671ZM22.3144 19.8429L31.9614 22.4764L31.9583 22.4878L31.9552 22.4991L22.3144 19.8429ZM21.6832 22.1339V32.1339H8.5554L12.0424 19.4777L21.6832 22.1339ZM33.7552 22.1339L36.3764 12.4835L33.7552 32.1339V22.1339ZM18.6592 27.232V37.232H8.6592V27.232H18.6592ZM18.6592 33.403H8.6592V23.403H18.6592V33.403ZM17.7208 17.232H17.8912V37.232H17.7208V17.232ZM7.8912 27.232V23.7991H27.8912V27.232H7.8912ZM7.8912 23.7991C7.8912 17.2752 13.2051 12.1339 19.5712 12.1339V32.1339C24.0845 32.1339 27.8912 28.4865 27.8912 23.7991H7.8912ZM19.5712 12.1339H20.884V32.1339H19.5712V12.1339ZM11.2427 19.4795L11.9291 16.9863L31.2117 22.2951L30.5253 24.7882L11.2427 19.4795ZM11.9314 16.9781C12.7564 13.9914 14.7328 11.4946 17.3887 9.99526L27.2209 27.4115C29.152 26.3213 30.6052 24.4907 31.2094 22.3033L11.9314 16.9781ZM17.3887 9.99526C20.0537 8.4907 23.1848 8.11053 26.1121 8.90504L20.8735 28.2068C22.9944 28.7824 25.2807 28.5069 27.2209 27.4115L17.3887 9.99526ZM26.1152 8.90587L39.2816 12.4838L34.0368 31.7839L20.8704 28.2059L26.1152 8.90587ZM36.6592 12.1339H38.3128V32.1339H36.6592V12.1339ZM38.3128 12.1339C44.6464 12.1339 50 17.2383 50 23.7991H30C30 28.5234 33.8416 32.1339 38.3128 32.1339V12.1339ZM50 23.7991V36.8359H30V23.7991H50ZM50 36.8359C50 43.3967 44.6464 48.5012 38.3128 48.5012V28.5012C33.8416 28.5012 30 32.1116 30 36.8359H50ZM38.3128 48.5012H19.5712V28.5012H38.3128V48.5012ZM19.5712 48.5012C13.2051 48.5012 7.8912 43.3598 7.8912 36.8359H27.8912C27.8912 32.1485 24.0845 28.5012 19.5712 28.5012V48.5012ZM7.8912 36.8359V33.4007H27.8912V36.8359H7.8912ZM17.8912 43.4007H17.7208V23.4007H17.8912V43.4007ZM17.7208 43.4007C11.3331 43.4007 6 38.2403 6 31.6949H26C26 27.029 22.2125 23.4007 17.7208 23.4007V43.4007ZM6 31.6949V28.9353H26V31.6949H6ZM6 28.9353C6 22.3719 11.3514 17.232 17.7208 17.232V37.232C22.1942 37.232 26 33.6194 26 28.9353H6ZM20.7263 28.9571C22.9787 29.5542 25.4846 29.291 27.6638 28.0404L17.709 10.6938C20.253 9.23393 23.1862 8.91836 25.8513 9.62488L20.7263 28.9571ZM27.6149 28.0683C29.7162 26.878 31.3052 24.8801 31.9614 22.4764L12.6674 17.2095C13.434 14.4013 15.287 12.0656 17.7579 10.666L27.6149 28.0683ZM31.9552 22.4991L31.324 24.7901L12.0424 19.4777L12.6736 17.1867L31.9552 22.4991ZM21.6832 12.1339H33.7552V32.1339H21.6832V12.1339ZM31.134 31.7842L20.6676 28.9413L25.91 9.64065L36.3764 12.4835L31.134 31.7842ZM28.6592 36.8359C28.6592 31.7445 24.5241 27.7399 19.5712 27.7399V47.7399C13.6103 47.7399 8.6592 42.9217 8.6592 36.8359H28.6592ZM19.5712 27.7399H38.3128V47.7399H19.5712V27.7399ZM38.3128 27.7399C33.4654 27.7399 29.232 31.6451 29.232 36.8359H49.232C49.232 43.0259 44.173 47.7399 38.3128 47.7399V27.7399ZM29.232 36.8359V23.7991H49.232V36.8359H29.232ZM29.232 23.7991C29.232 28.9753 33.4481 32.8951 38.3128 32.8951V12.8951C44.1903 12.8951 49.232 17.6285 49.232 23.7991H29.232ZM38.3128 32.8951H19.5712V12.8951H38.3128V32.8951ZM19.5712 32.8951C24.4921 32.8951 28.6592 28.9222 28.6592 23.7991H8.6592C8.6592 17.6769 13.6471 12.8951 19.5712 12.8951V32.8951ZM28.6592 23.7991V27.232H8.6592V23.7991H28.6592ZM18.6592 17.232H22.7944V37.232H18.6592V17.232ZM22.7944 17.232C29.9501 17.232 35.9072 23.0109 35.9072 30.3175H15.9072C15.9072 34.2222 19.0707 37.232 22.7944 37.232V17.232ZM35.9072 30.3175C35.9072 37.6241 29.9501 43.403 22.7944 43.403V23.403C19.0707 23.403 15.9072 26.4128 15.9072 30.3175H35.9072ZM22.7944 43.403H18.6592V23.403H22.7944V43.403ZM28.6592 33.403V36.8359H8.6592V33.403H28.6592ZM26.768 31.6973C26.768 26.5963 22.6183 22.6394 17.7184 22.6394V42.6394C11.7721 42.6394 6.768 37.8403 6.768 31.6973H26.768ZM17.7184 22.6394H22.7944V42.6394H17.7184V22.6394ZM22.7944 22.6394C18.6459 22.6394 15.1368 25.9918 15.1368 30.3175H35.1368C35.1368 37.203 29.5253 42.6394 22.7944 42.6394V22.6394ZM15.1368 30.3175C15.1368 34.6433 18.6459 37.9956 22.7944 37.9956V17.9956C29.5253 17.9956 35.1368 23.432 35.1368 30.3175H15.1368ZM22.7944 37.9956H17.7184V17.9956H22.7944V37.9956ZM17.7184 37.9956C22.649 37.9956 26.768 34.0084 26.768 28.9377H6.768C6.768 22.8298 11.7366 17.9956 17.7184 17.9956V37.9956ZM26.768 28.9377V31.6973H6.768V28.9377H26.768Z" fill="#039855" mask="url(#path-2-inside-1_3160_18001)"/>
<path d="M22.7462 28.793C23.5934 28.793 24.2822 29.4757 24.2822 30.3155C24.2822 31.1553 23.5934 31.8381 22.7462 31.8381C21.899 31.8381 21.2102 31.1553 21.2102 30.3155C21.2078 29.4781 21.899 28.793 22.7462 28.793ZM22.7462 31.0768C23.1686 31.0768 23.5142 30.7366 23.5142 30.3155C23.5142 29.8944 23.171 29.5542 22.7462 29.5542C22.3214 29.5542 21.9782 29.8944 21.9782 30.3155C21.9782 30.7366 22.3214 31.0768 22.7462 31.0768Z" fill="#039855"/>
</g>
<defs>
<clipPath id="clip0_3160_18001">
<rect width="24" height="20" fill="white" transform="matrix(-1 0 0 1 40 18.5)"/>
</clipPath>
</defs>
</svg>
