<svg width="20" height="18" viewBox="0 0 20 18" fill="none" xmlns="http://www.w3.org/2000/svg">
<path d="M18.566 7.59259H18.424V4.60768C18.424 3.80922 17.796 3.1597 17.024 3.1597H15.93L15.358 0.991859C15.266 0.644343 15.048 0.354746 14.746 0.176851C14.444 -0.00104387 14.092 -0.0465519 13.756 0.0486013L2.784 3.1597H1.406C0.63 3.1597 0 3.80922 0 4.60768V15.9433C0 16.7418 0.63 17.3913 1.406 17.3913H17.024C17.796 17.3913 18.424 16.7418 18.424 15.9433V12.9563H18.566C19.356 12.9563 20 12.2903 20 11.4732V9.07368C20 8.2566 19.356 7.59259 18.566 7.59259ZM13.926 0.687783C14.098 0.640206 14.276 0.66296 14.428 0.753976C14.582 0.844992 14.692 0.991859 14.738 1.16769L15.264 3.1597H5.204L13.926 0.687783ZM17.784 15.9433C17.784 16.3756 17.444 16.7294 17.024 16.7294H1.406C0.984 16.7294 0.64 16.3777 0.64 15.9433V4.60768C0.64 4.17535 0.984 3.82163 1.406 3.82163H17.024C17.442 3.82163 17.784 4.17329 17.784 4.60768V7.59259H14.338C12.908 7.59259 11.744 8.79649 11.744 10.2755C11.744 11.7545 12.908 12.9584 14.338 12.9584H17.784V15.9433ZM19.36 11.4753C19.36 11.9283 19.004 12.2944 18.568 12.2944H14.338C13.262 12.2944 12.386 11.3884 12.386 10.2755C12.386 9.16262 13.262 8.2566 14.338 8.2566H18.568C19.006 8.2566 19.36 8.6248 19.36 9.07574V11.4753Z" fill="#344054"/>
</svg>
